<svg width="205" height="63" viewBox="0 0 205 63" fill="none" xmlns="http://www.w3.org/2000/svg">
<path d="M12.3812 1.40939V2.81536L13.2973 2.82879C14.1596 2.84221 14.22 2.84557 14.4113 2.91939C15.0019 3.15428 15.4247 3.64083 15.5354 4.21463C15.5623 4.36227 15.569 6.44607 15.5623 12.0331L15.5488 19.6502L15.4784 19.9522C15.2837 20.7843 14.9515 21.4387 14.3845 22.1098C14.1529 22.3849 13.6764 22.8279 13.465 22.9688C13.4046 23.0057 13.3543 23.0527 13.3543 23.0695C13.3543 23.103 13.3207 23.1097 14.3777 22.895C15.8945 22.5863 17.4279 22.3681 18.9413 22.244C19.6493 22.187 22.0418 22.187 22.6492 22.244C23.8303 22.3547 24.7833 22.5191 25.8537 22.7943C27.5449 23.2238 29.169 23.9419 30.6018 24.8848C32.8366 26.3579 34.5614 28.3242 35.8197 30.8409C37.1653 33.5287 37.9102 36.5252 38.1216 40.0855C38.1719 40.9445 38.1417 42.9645 38.0679 43.743C37.8297 46.2462 37.2324 48.4575 36.2593 50.4273C35.5714 51.8198 34.8265 52.9137 33.756 54.1083C32.3635 55.6619 30.8736 56.786 28.9744 57.7256C27.5617 58.4235 26.243 58.8195 24.5954 59.0443C23.988 59.1282 22.7029 59.145 22.0922 59.0812C18.8004 58.7322 15.5723 56.8129 13.0221 53.6989C11.5591 51.9104 10.5491 49.9474 9.96856 47.7529C9.21356 44.9074 9.32093 40.9948 10.2538 37.4178C10.8343 35.1931 11.7202 33.1294 12.8375 31.4181C14.2603 29.2437 16.2904 27.4015 17.8038 26.9149C19.646 26.3243 22.025 26.6196 23.5384 27.6263C23.8639 27.841 24.3504 28.3008 24.5451 28.5759C24.8907 29.0625 25.0719 29.6027 25.1222 30.2772L25.1423 30.5725H25.8906C26.3034 30.5725 26.6423 30.5624 26.6423 30.549C26.6423 30.4684 26.4443 29.8007 26.3503 29.5658C25.9443 28.5625 25.1927 27.7001 24.1692 27.0693C23.7666 26.821 23.1794 26.5425 22.8002 26.4149C22.4311 26.2908 22.478 26.2841 22.9143 26.3948C24.7665 26.8646 26.1255 27.8981 26.8872 29.4182C27.0416 29.7269 27.2798 30.3846 27.2798 30.5054C27.2798 30.5691 27.3033 30.5725 28.0382 30.5725H28.7965L28.6724 30.3443C28.0852 29.2705 27.1255 28.2538 26.0215 27.5357C25.5786 27.2471 25.1189 27.0022 24.6726 26.8109C24.1525 26.5894 23.4008 26.3512 23.0351 26.2941C22.5284 26.2103 22.4411 26.1733 22.8002 26.1935C23.8672 26.2539 25.2397 26.7002 26.3 27.3344C27.5751 28.0961 28.7831 29.2806 29.3737 30.3443L29.5012 30.5725H30.3065C31.075 30.5725 31.1119 30.5691 31.0649 30.5121C29.9139 29.1564 29.0314 28.3511 27.7664 27.5021C27.008 26.9955 25.8403 26.4284 24.9947 26.1633C23.6894 25.7472 22.5519 25.5761 20.9043 25.5492C17.6796 25.4955 14.012 26.1901 11.19 27.3914C7.7908 28.841 5.01912 31.0188 3.17357 33.6898C2.5293 34.6226 1.81793 35.9145 1.41191 36.8809C0.911929 38.0788 0.479063 39.6056 0.237463 41.025C-0.0846692 42.9343 -0.0779581 44.998 0.250886 46.9475C0.730729 49.7897 1.74075 52.1453 3.4655 54.4405C4.47888 55.7894 5.89492 57.192 7.26063 58.2021C10.2504 60.4134 14.3039 62.0408 18.3205 62.6482C23.0619 63.3629 27.7899 62.9837 31.887 61.5576C35.0949 60.4436 38.1921 58.6282 40.6852 56.4068C41.7322 55.474 42.8798 54.209 43.7623 53.0211C45.7085 50.3937 46.9232 47.6287 47.497 44.5148C47.8359 42.6826 47.8795 40.1794 47.6145 38.2063C47.2588 35.5789 46.3595 32.9314 45.1246 30.8577C44.326 29.5188 43.4066 28.3276 42.3295 27.2203C40.1349 24.9687 37.6955 23.3882 34.5949 22.2037C34.2896 22.0863 33.9607 21.9655 33.8634 21.9319C33.7661 21.9017 33.6889 21.8615 33.6956 21.848C33.7024 21.8313 33.9104 21.6735 34.1587 21.4957C36.4539 19.8481 37.6015 18.4254 38.0545 16.6704C38.2357 15.9658 38.229 16.1268 38.2424 12.2008C38.2592 8.248 38.2558 8.16076 38.0813 7.30173C37.5512 4.68776 35.9371 2.58719 33.5379 1.3859C32.1655 0.70137 30.5716 0.271858 28.7059 0.0805931C28.1892 0.0302582 27.4006 0.0235481 20.26 0.0134811L12.3812 6.10352e-05V1.40939ZM24.3773 4.07034C24.5585 4.1643 24.5853 4.20121 24.6994 4.50992C24.7363 4.61729 24.8001 4.72467 24.8403 4.74816C24.8806 4.77501 25.0115 4.80185 25.1323 4.81192C25.4376 4.83205 25.5584 4.90252 25.6423 5.10385C25.7631 5.39578 25.8772 5.3723 26.2564 4.97969L26.5315 4.69447L26.7799 4.82198C27.0282 4.94949 27.0282 4.94949 27.4912 4.95956C28.1321 4.96963 28.1724 4.99312 28.4174 5.47967C28.6321 5.91254 28.9106 6.25816 29.1287 6.36889C29.2764 6.43936 29.2932 6.46285 29.3737 6.68767C29.4207 6.82189 29.5213 7.13396 29.5985 7.38227C29.7629 7.92922 29.867 8.14062 30.132 8.46946C30.5246 8.95602 30.7864 9.14057 31.1421 9.1842C31.434 9.21775 31.6689 9.15064 31.9776 8.94595C32.4474 8.63388 32.5782 8.66409 32.6185 9.10702C32.642 9.34191 32.6386 9.35533 32.4944 9.65062C32.3467 9.95933 31.6118 11.0901 31.5145 11.1673C31.481 11.1908 31.2931 11.2948 31.0917 11.4022C30.679 11.6203 30.4508 11.8217 30.3065 12.0935C30.2159 12.2646 30.2159 12.2713 30.2294 12.7881C30.2629 13.9591 30.2528 14.2679 30.1723 14.4423C30.0817 14.647 29.9173 14.8584 29.7999 14.9155C29.7495 14.9423 29.6489 14.9725 29.5784 14.9859C29.2361 15.0463 29.0247 15.2913 29.0247 15.6201C29.0247 15.7577 29.0415 15.8013 29.1388 15.9121C29.2663 16.0496 29.3267 16.2208 29.3267 16.4288C29.3267 16.6201 29.263 16.7174 29.0818 16.8181C28.9912 16.865 28.8905 16.9355 28.8569 16.9691C28.7932 17.0362 28.5885 17.4825 28.5885 17.5596C28.5885 17.5865 28.4778 17.7207 28.3469 17.8583C28.2127 17.9992 28.0617 18.1737 28.0113 18.2509C27.904 18.4153 27.7328 18.5093 27.4308 18.573C27.2396 18.6133 27.1926 18.6401 27.0684 18.7744C26.9443 18.9052 26.904 18.9287 26.7933 18.9287C26.5215 18.9287 26.2027 18.6804 26.0249 18.3348C25.9812 18.2442 25.8571 17.8918 25.7531 17.5496C25.5115 16.7677 25.3907 16.4657 25.045 15.7644C24.8907 15.4557 24.7565 15.1537 24.7464 15.0933C24.7296 15.0061 24.7732 14.8651 24.9611 14.3987C25.1289 13.986 25.1994 13.7679 25.1994 13.6672C25.1994 13.5699 25.1289 13.3384 24.9947 12.9793C24.7665 12.3653 24.6826 12.1874 24.431 11.7814C24.2263 11.4492 24.2229 11.3854 24.3907 11.023C24.488 10.815 24.4914 10.7915 24.4444 10.721C24.3739 10.6137 24.327 10.5935 23.9243 10.4929C23.6928 10.4358 23.4243 10.3318 23.1424 10.1976L22.7129 9.98953L22.5988 10.0533C22.5384 10.0902 22.3707 10.1909 22.223 10.2815C21.8774 10.4929 21.609 10.5734 21.2533 10.5734C20.9177 10.5734 20.6795 10.4962 20.4379 10.305C20.1258 10.0566 19.8137 9.52646 19.6124 8.89226L19.5184 8.60368L19.6392 8.25471C19.7231 8.00975 19.7768 7.77487 19.8137 7.46951C19.8741 6.95276 19.8641 6.99303 20.0553 6.54674C20.2835 6.0132 20.6056 5.40921 20.6962 5.33874C20.7399 5.30183 20.8305 5.26492 20.9009 5.2515C20.968 5.23807 21.166 5.13405 21.3405 5.01996C21.9982 4.5871 22.6391 4.26497 23.1726 4.1039C23.6391 3.95961 23.6089 3.96632 23.9243 3.97639C24.1525 3.9831 24.2431 4.00323 24.3773 4.07034ZM32.0313 14.439C32.0212 14.6068 32.0112 14.7947 32.0112 14.8584C32.0112 14.9423 31.9843 14.9994 31.9138 15.0631C31.8132 15.1571 31.5246 15.8416 31.3602 16.3718C31.3098 16.5261 31.2562 16.6838 31.236 16.7241C31.1354 16.9187 30.9038 16.9758 30.773 16.8348C30.6689 16.7241 30.6555 16.5698 30.7126 16.1906C30.7428 16.006 30.7763 15.7678 30.7864 15.6571C30.8434 15.0765 30.8669 15.0363 31.3568 14.6672C31.5246 14.543 31.7259 14.3719 31.8098 14.2846C32.0346 14.0531 32.0581 14.0699 32.0313 14.439Z" fill="#866838"/>
<path d="M24.3897 31.5657C24.2152 31.7838 23.779 32.3207 23.42 32.7669C23.0576 33.2132 22.5609 33.8239 22.3193 34.1293L21.873 34.683L23.7421 34.693C24.7722 34.6964 25.6246 34.6897 25.638 34.6762C25.6749 34.6393 26.6748 31.2771 26.6748 31.1965C26.6748 31.1865 26.2319 31.1764 25.6917 31.1764H24.7085L24.3897 31.5657Z" fill="#866838"/>
<path d="M27.2946 31.3006C27.2509 31.5422 26.412 34.4313 26.3248 34.6393C26.3013 34.6964 26.4053 34.6997 28.1938 34.6997H30.0864L29.5864 32.9381L29.0831 31.1764H28.2006H27.318L27.2946 31.3006Z" fill="#866838"/>
<path d="M29.8393 31.6193C29.9131 31.8643 30.1413 32.6528 30.3493 33.3743L30.7252 34.683L32.6278 34.693L34.5337 34.6997L34.3693 34.5085C34.2787 34.4011 34.0874 34.1628 33.9398 33.9783C33.7921 33.7937 33.3257 33.2199 32.9029 32.7032C32.4801 32.1864 32.0238 31.6328 31.8963 31.4717L31.658 31.1798H30.6815L29.7051 31.1764L29.8393 31.6193Z" fill="#866838"/>
<path d="M28.1278 35.2601C27.0708 35.2668 26.2051 35.2836 26.2051 35.297C26.2051 35.3104 26.2655 35.5487 26.3427 35.8238C26.6849 37.0855 28.1513 43.0785 28.1513 43.2195C28.1513 43.2631 28.158 43.2933 28.1714 43.2832C28.2083 43.2429 29.5304 38.0385 29.876 36.562C30.017 35.9715 30.1445 35.4413 30.1613 35.3809C30.1948 35.2635 30.1814 35.2333 30.1009 35.2433C30.0707 35.25 29.1815 35.2567 28.1278 35.2601Z" fill="#866838"/>
<path d="M32.3218 35.2602C30.8252 35.2702 30.7682 35.2736 30.7682 35.334C30.7682 35.3675 30.6943 35.7031 30.6037 36.0789C30.5131 36.4547 30.3688 37.0587 30.2816 37.4178C30.1977 37.7768 29.8487 39.1794 29.5065 40.5351C29.1676 41.8907 28.8958 43.0048 28.9025 43.0115C28.9092 43.0182 29.0837 42.7799 29.2917 42.4779C30.0501 41.384 33.1707 37.0856 34.2445 35.6528C34.3989 35.4481 34.5264 35.2702 34.5264 35.2568C34.5264 35.2467 34.3787 35.24 34.2009 35.2434C34.0197 35.2501 33.1741 35.2568 32.3218 35.2602Z" fill="#866838"/>
<path d="M21.877 35.287C21.877 35.2971 22.0548 35.5421 22.2729 35.834C22.491 36.1226 23.0246 36.844 23.4574 37.4346C23.8936 38.0252 24.5916 38.9748 25.0144 39.5486C26.209 41.1693 27.2056 42.5417 27.4002 42.837C27.4707 42.9377 27.5311 43.0182 27.5344 43.0115C27.5411 43.0048 27.5176 42.8941 27.4774 42.7665C27.4405 42.639 27.2156 41.7498 26.9807 40.7901C26.7425 39.8304 26.3868 38.411 26.1888 37.6359C25.9909 36.8608 25.7761 36.0118 25.709 35.7467L25.5882 35.2703H23.7326C22.7125 35.2703 21.877 35.277 21.877 35.287Z" fill="#866838"/>
<path d="M72.384 28.1665C72.384 32.4114 69.1682 35.37 64.5557 35.37C62.8834 35.37 61.1193 35.1495 59.6676 35.1495C58.3996 35.1495 55.9004 35.2965 55 35.37V35.1495C56.7825 34.9657 57.9402 34.3593 58.0505 32.246C58.1975 29.0302 58.2342 26.1635 58.2342 22.2861C58.2342 18.8497 58.2342 15.5787 58.0505 12.3261C57.9402 10.2312 56.7825 9.6799 55 9.44101V9.22049C55.7902 9.29399 57.9035 9.33075 58.9509 9.33075C59.9984 9.33075 61.1928 9.22049 63.0856 9.22049C66.9997 9.22049 70.9507 11.003 70.9507 15.0825C70.9507 18.4454 68.3412 20.9813 65.2356 21.4959C69.6276 21.9002 72.384 24.2523 72.384 28.1665ZM62.8283 10.415C62.2035 10.415 61.5971 10.4885 60.8437 10.6355C60.6967 15.4133 60.6599 18.0963 60.6599 21.1835C61.4868 21.2202 62.2219 21.257 62.7181 21.257C66.522 21.257 68.2677 18.2433 68.2677 15.6522C68.2493 12.7304 66.0442 10.415 62.8283 10.415ZM69.7011 28.6994C69.7011 24.6382 66.5771 22.1758 62.9202 22.1758C62.4057 22.1758 61.542 22.2126 60.6415 22.2861C60.6415 26.384 60.6783 29.3793 60.7885 31.952C60.8621 33.661 62.4608 34.1204 64.0779 34.1204C68.0472 34.1388 69.7011 31.7866 69.7011 28.6994Z" fill="#866838"/>
<path d="M101.253 35.1495V35.37C100.022 35.2598 98.2397 35.1495 96.9349 35.1495C95.6302 35.1495 93.8845 35.223 92.1203 35.37V35.1495C94.399 34.9658 95.5567 34.3226 94.7665 32.2093C94.252 30.9046 93.3883 28.8097 92.3409 26.4208C90.9259 26.3473 89.2536 26.3105 87.4528 26.3105C85.6702 26.3105 83.6856 26.3473 82.1971 26.4208C81.4437 28.3687 80.7086 30.3349 80.0287 32.2093C79.2753 34.3042 79.992 34.9658 82.4176 35.1495V35.37C81.0394 35.2598 79.5142 35.1495 78.43 35.1495C77.015 35.1495 75.747 35.2598 74.7363 35.37V35.1495C75.8573 35.0025 77.0517 34.3226 77.9522 32.1726C80.3044 26.6597 85.7438 13.5206 87.3976 9H87.4711C91.3118 17.7288 93.3332 22.3228 97.8354 32.2461C98.7542 34.2858 99.5811 34.8923 101.253 35.1495ZM91.7344 24.8955C90.0622 21.1284 88.1878 16.9202 86.9566 14.2556C85.6151 17.6553 84.1634 21.2754 82.7852 24.8955C84.0899 25.0058 86.001 25.0793 87.416 25.0793C88.978 25.0793 90.3562 25.0058 91.7344 24.8955Z" fill="#866838"/>
<path d="M112.443 35.1128V35.3333C110.569 35.1863 109.301 35.1128 107.996 35.1128C106.654 35.1128 105.386 35.1863 103.549 35.3333V35.1128C105.405 34.8923 106.489 34.2123 106.599 32.1358C106.783 28.8832 106.783 25.943 106.783 22.2861C106.783 18.6292 106.783 15.689 106.599 12.4364C106.489 10.3782 105.405 9.67993 103.549 9.45941V9.23889C105.405 9.3859 106.673 9.45941 107.996 9.45941C109.301 9.45941 110.569 9.3859 112.443 9.23889V9.45941C110.587 9.67993 109.503 10.3598 109.393 12.4364C109.209 15.7625 109.209 18.5924 109.209 22.2861C109.209 25.9797 109.209 28.8097 109.393 32.1358C109.503 34.2123 110.587 34.8923 112.443 35.1128ZM112.737 21.4224C122.44 31.8969 123.377 34.782 128.927 35.1128V35.3333C119.114 35.3333 121.098 33.7713 109.981 22.2493L119.977 12.3629C121.503 10.8376 121.061 9.67993 118.856 9.42266V9.20214C119.573 9.27565 121.208 9.42266 122.476 9.42266C123.781 9.42266 124.792 9.34915 126.133 9.20214V9.42266C124.865 9.60642 123.597 10.8009 122.072 12.2894L112.737 21.4224Z" fill="#866838"/>
<path d="M185.142 9.22052V9.44103C183.322 9.6983 182.385 10.268 182.238 12.3077C182.018 15.4868 181.907 17.6736 181.907 23.1314C181.907 26.6413 181.907 31.6764 182.054 35.5906H181.981C176.192 28.6994 169.852 21.7899 163.053 14.7885C163.016 16.9202 163.016 19.0702 163.016 21.3121C163.016 26.8618 163.09 28.9935 163.311 32.2093C163.458 34.3042 164.358 34.8923 166.177 35.1495V35.37C164.468 35.223 163.458 35.1495 162.19 35.1495C160.958 35.1495 159.984 35.223 158.275 35.37V35.1495C160.095 34.8923 160.995 34.3226 161.142 32.2093C161.326 28.9935 161.436 26.8434 161.436 21.3489C161.436 17.839 161.436 12.5099 161.326 9H161.399C167.813 16.2035 174.189 23.1314 180.419 29.7836C180.456 27.505 180.456 25.1896 180.456 23.0395C180.456 17.6001 180.345 15.4685 180.125 12.2894C179.978 10.268 179.041 9.67992 177.221 9.42266V9.20214C178.93 9.34915 180.015 9.42266 181.246 9.42266C182.495 9.44103 183.433 9.36753 185.142 9.22052Z" fill="#866838"/>
<path d="M204.73 30.4819C204.546 32.0807 204.546 33.5692 204.73 35.3333C201.404 35.1128 199.732 35.1495 197.306 35.1495C194.954 35.1495 190.819 35.1863 188.908 35.37V35.1495C190.691 34.929 191.848 34.3226 191.959 32.2093C192.142 28.9567 192.142 26.1267 192.142 22.2861C192.142 18.813 192.142 15.5787 191.959 12.3261C191.848 10.268 190.764 9.60642 188.908 9.42266V9.20214C190.856 9.3859 193.87 9.42266 197.306 9.42266C199.475 9.42266 202.488 9.3859 204.62 9.20214C204.51 10.6171 204.51 12.1791 204.62 13.686H204.399C203.885 10.9663 202.58 10.5436 198.997 10.5436C197.692 10.5436 196.13 10.6171 194.752 10.7641C194.605 15.5052 194.568 17.9309 194.568 20.8711C195.873 20.9446 197.141 20.9814 198.942 20.9446C201.257 20.9446 201.808 20.0074 202.194 18.5189L202.415 18.5557C202.305 19.4929 202.194 20.5036 202.194 21.4224C202.194 22.3964 202.231 23.4438 202.415 24.3994L202.194 24.4361C201.68 22.7639 201.294 22.084 198.942 22.0472C197.269 22.0472 195.928 22.0104 194.568 22.084V22.3045C194.568 26.1451 194.568 29.1588 194.715 31.4008C194.862 33.7529 196.387 33.9367 199.713 33.9367C202.617 33.9367 203.701 33.5692 204.491 30.4636L204.73 30.4819Z" fill="#866838"/>
<path d="M130.752 22.1751C130.752 22.8658 130.819 23.5397 130.937 24.1968C131.173 25.4267 130.482 26.6398 129.32 27.1115C128.696 25.5952 128.359 23.9272 128.359 22.1751C128.359 20.4229 128.696 18.7718 129.32 17.2386C130.482 17.7104 131.156 18.9234 130.937 20.1533C130.819 20.8104 130.752 21.4843 130.752 22.1751Z" fill="#866838"/>
<path d="M136.614 34.373C133.312 33.042 130.667 30.3968 129.336 27.0947C130.515 26.6229 131.846 27.061 132.554 28.1224C133.346 29.3354 134.39 30.3632 135.587 31.155C136.648 31.8626 137.086 33.1936 136.614 34.373Z" fill="#866838"/>
<path d="M146.471 34.373C144.954 34.9963 143.286 35.3333 141.534 35.3333C139.782 35.3333 138.131 34.9963 136.598 34.373C137.069 33.2105 138.282 32.5365 139.512 32.7556C140.169 32.8735 140.843 32.9409 141.534 32.9409C142.225 32.9409 142.899 32.8735 143.556 32.7556C144.786 32.5365 146.016 33.2105 146.471 34.373Z" fill="#866838"/>
<path d="M153.75 27.0947C152.419 30.3968 149.774 33.042 146.472 34.373C146 33.1936 146.438 31.8626 147.5 31.155C148.696 30.3632 149.74 29.3186 150.532 28.1224C151.24 27.061 152.571 26.6229 153.75 27.0947Z" fill="#866838"/>
<path d="M154.71 22.1751C154.71 23.9272 154.373 25.5783 153.749 27.1115C152.587 26.6398 151.913 25.4267 152.132 24.1968C152.25 23.5397 152.317 22.8658 152.317 22.1751C152.317 21.4843 152.25 20.8104 152.132 20.1533C151.896 18.9234 152.587 17.7104 153.749 17.2386C154.373 18.7549 154.71 20.4229 154.71 22.1751Z" fill="#866838"/>
<path d="M153.75 17.2386C152.571 17.7104 151.24 17.2723 150.532 16.2109C149.74 15.0147 148.696 13.9701 147.5 13.1783C146.438 12.4707 146 11.1397 146.472 9.96033C149.774 11.2913 152.419 13.9364 153.75 17.2386Z" fill="#866838"/>
<path d="M146.471 9.96033C145.999 11.1228 144.786 11.7968 143.556 11.5777C142.899 11.4598 142.225 11.3924 141.534 11.3924C140.843 11.3924 140.169 11.4598 139.512 11.5777C138.282 11.8136 137.069 11.1228 136.598 9.96033C138.114 9.33696 139.782 9 141.534 9C143.286 9 144.954 9.33696 146.471 9.96033Z" fill="#866838"/>
<path d="M135.587 13.1783C134.39 13.9701 133.346 15.0147 132.554 16.2109C131.846 17.2723 130.515 17.7104 129.336 17.2386C130.667 13.9364 133.312 11.2913 136.614 9.96033C137.086 11.1397 136.648 12.4707 135.587 13.1783Z" fill="#866838"/>
<path d="M59.9062 43.5132V43.597C59.138 43.7227 58.7749 44.03 58.733 44.7702C58.6492 46.1109 58.6492 47.0327 58.6492 48.541C58.6492 50.0493 58.6492 50.9711 58.733 52.3118C58.7749 53.066 59.138 53.3593 59.9062 53.485V53.5688C59.1939 53.5129 58.5654 53.485 58.0068 53.485C57.4342 53.485 56.8197 53.5129 56.1074 53.5688V53.485C56.8616 53.3593 57.2387 53.052 57.2806 52.2979C57.3504 51.0409 57.3644 49.9655 57.3644 48.541C57.3644 47.1165 57.3504 46.0411 57.2806 44.7841C57.2387 44.03 56.8616 43.7227 56.1074 43.597V43.5132C56.8197 43.5691 57.4342 43.597 58.0068 43.597C58.5654 43.597 59.1939 43.5691 59.9062 43.5132Z" fill="#866838"/>
<path d="M70.5366 43.1222H70.6204C70.4249 43.8345 70.2713 44.6724 70.2154 45.1892H70.1316C70.1875 44.6026 70.1037 44.2534 69.4612 44.1836C68.9165 44.1138 67.7713 44.0719 66.8216 44.0579C66.7658 45.3707 66.7518 46.907 66.7518 48.5829C66.7518 50.1052 66.7658 51.0409 66.8356 52.3817C66.8775 53.1358 67.2406 53.4151 68.0088 53.5408V53.6246C67.2965 53.5688 66.682 53.5408 66.1094 53.5408C65.5507 53.5408 64.9362 53.5688 64.224 53.6246V53.5408C64.9781 53.4151 65.3552 53.1358 65.3971 52.3677C65.4669 51.1107 65.4669 50.0074 65.4669 48.5829C65.4669 47.0187 65.453 45.4126 65.3971 44.0579C64.4614 44.0719 63.3301 44.1277 62.7855 44.1836C62.1151 44.2674 61.9475 44.6584 61.7241 45.259L61.6403 45.245C61.8078 44.7562 62.0034 43.7646 62.1011 43.0943H62.1849C62.171 43.4155 62.2408 43.4434 62.4084 43.4574C62.8553 43.5132 65.0899 43.5551 66.0814 43.5551C67.073 43.5551 69.573 43.5132 70.0757 43.4434C70.3411 43.4155 70.4668 43.3736 70.5366 43.1222Z" fill="#866838"/>
<path d="M73.9954 43.7507C73.9116 44.0765 73.8045 44.4303 73.6742 44.8121C73.5438 45.1938 73.3995 45.5755 73.2412 45.9573C73.0922 46.3297 72.9433 46.6835 72.7943 47.0187H71.8865C71.9517 46.758 72.0169 46.4787 72.082 46.1807C72.1565 45.8828 72.2217 45.5849 72.2776 45.2869C72.3427 44.9797 72.3986 44.6817 72.4451 44.3931C72.501 44.1045 72.5476 43.8391 72.5848 43.597H73.8976L73.9954 43.7507Z" fill="#866838"/>
<path d="M78.1825 53.6805C77.0372 53.6805 76.2691 53.2475 75.7384 52.8565C75.7803 52.256 75.7943 51.7392 75.7384 51.0968H75.8222C76.1155 52.5353 77.135 53.1498 78.1964 53.1498C79.202 53.1498 80.0958 52.633 80.0958 51.4739C80.0958 49.0577 75.9619 48.5131 75.9619 45.7897C75.9619 44.1836 77.3864 43.4015 78.8668 43.4015C79.7048 43.4015 80.3332 43.6529 80.7941 43.9182C80.7243 44.4071 80.7103 45.0774 80.7941 45.6081H80.7103C80.4729 44.3093 79.6489 43.9322 78.8389 43.9322C77.7355 43.9322 77.2188 44.6026 77.2188 45.3567C77.2188 47.5215 81.3667 48.0941 81.3667 50.9432C81.3667 52.6191 79.9561 53.6805 78.1825 53.6805Z" fill="#866838"/>
<path d="M96.407 43.1222H96.4908C96.2953 43.8345 96.1417 44.6724 96.0858 45.1892H96.002C96.0579 44.6026 95.9741 44.2534 95.3316 44.1836C94.787 44.1138 93.6417 44.0719 92.6921 44.0579C92.6362 45.3707 92.6222 46.907 92.6222 48.5829C92.6222 50.1052 92.6362 51.0409 92.706 52.3817C92.7479 53.1358 93.111 53.4151 93.8792 53.5408V53.6246C93.1669 53.5688 92.5524 53.5408 91.9798 53.5408C91.4211 53.5408 90.8066 53.5688 90.0944 53.6246V53.5408C90.8485 53.4151 91.2256 53.1358 91.2675 52.3677C91.3373 51.1107 91.3373 50.0074 91.3373 48.5829C91.3373 47.0187 91.3234 45.4126 91.2675 44.0579C90.3318 44.0719 89.2006 44.1277 88.6559 44.1836C87.9855 44.2674 87.8179 44.6584 87.5945 45.259L87.5107 45.245C87.6783 44.7562 87.8738 43.7646 87.9715 43.0943H88.0553C88.0414 43.4155 88.1112 43.4434 88.2788 43.4574C88.7257 43.5132 90.9603 43.5551 91.9519 43.5551C92.9434 43.5551 95.4434 43.5132 95.9461 43.4434C96.2115 43.4155 96.3372 43.3736 96.407 43.1222Z" fill="#866838"/>
<path d="M102.128 43.5132V43.597C101.36 43.7227 100.997 44.03 100.955 44.7702C100.871 46.1109 100.871 47.0327 100.871 48.541C100.871 50.0493 100.871 50.9711 100.955 52.3118C100.997 53.066 101.36 53.3593 102.128 53.485V53.5688C101.416 53.5129 100.788 53.485 100.229 53.485C99.6563 53.485 99.0418 53.5129 98.3295 53.5688V53.485C99.0837 53.3593 99.4608 53.052 99.5027 52.2979C99.5725 51.0409 99.5865 49.9655 99.5865 48.541C99.5865 47.1165 99.5725 46.0411 99.5027 44.7841C99.4608 44.03 99.0837 43.7227 98.3295 43.597V43.5132C99.0418 43.5691 99.6563 43.597 100.229 43.597C100.788 43.597 101.416 43.5691 102.128 43.5132Z" fill="#866838"/>
<path d="M115.859 52.3956C115.957 53.1638 116.362 53.3732 117.116 53.4989V53.5827C116.418 53.5269 115.817 53.5129 115.175 53.5129C114.63 53.5129 114.002 53.5269 113.303 53.5827V53.4989C114.016 53.3872 114.421 53.1777 114.365 52.3817C114.239 50.4683 114.044 48.6108 113.792 46.7394C112.479 49.0857 111.25 51.3761 110.063 53.6945H110.035C108.848 51.418 107.549 49.0857 106.195 46.7813C105.943 48.6946 105.762 50.4683 105.622 52.3398C105.552 53.1638 105.832 53.3593 106.642 53.4989V53.5827C105.957 53.5269 105.664 53.5129 105.147 53.5129C104.644 53.5129 104.267 53.5269 103.597 53.5827V53.4989C104.393 53.3872 104.7 53.1638 104.812 52.3398C105.245 49.3929 105.566 46.3483 105.804 43.3875H105.832C107.228 46.0132 108.667 48.5969 110.426 51.5158C112.032 48.7226 113.457 46.1109 114.84 43.3875H114.868C115.119 46.4601 115.44 49.379 115.859 52.3956Z" fill="#866838"/>
<path d="M125.045 51.4878L125.129 51.5018C125.059 52.1861 125.059 52.8425 125.129 53.5688C123.886 53.485 123.034 53.4989 122.098 53.4989C121.218 53.4989 119.556 53.5129 118.718 53.5827V53.4989C119.458 53.3732 119.85 53.1219 119.891 52.3118C119.961 51.027 119.961 50.0773 119.961 48.541C119.961 47.1723 119.961 46.0411 119.891 44.7841C119.85 44.016 119.472 43.7088 118.732 43.5831V43.4993C119.584 43.5691 120.771 43.5831 122.098 43.5831C123.104 43.5831 124.263 43.5551 125.073 43.4993C125.031 44.0439 125.017 44.7562 125.073 45.4126H124.989C124.78 44.2953 124.235 44.0439 122.894 44.0439C122.461 44.0439 121.93 44.0579 121.33 44.1277C121.26 45.9852 121.246 46.893 121.246 48.0382C121.665 48.0522 122.112 48.0522 122.838 48.0382C123.802 48.0243 123.983 47.6472 124.137 47.0327L124.221 47.0466C124.179 47.4517 124.137 47.8706 124.137 48.2617C124.137 48.6527 124.165 49.0717 124.221 49.4628L124.137 49.4767C123.956 48.8064 123.816 48.541 122.838 48.5131C122.266 48.4991 121.749 48.4991 121.246 48.4991V48.541C121.246 50.0633 121.26 51.1806 121.302 51.9347C121.372 52.8844 122.07 52.9682 123.145 52.9682C124.291 52.9682 124.752 52.7308 125.045 51.4878Z" fill="#866838"/>
<path d="M140.116 43.1222H140.2C140.005 43.8345 139.851 44.6724 139.795 45.1892H139.711C139.767 44.6026 139.683 44.2534 139.041 44.1836C138.496 44.1138 137.351 44.0719 136.401 44.0579C136.345 45.3707 136.331 46.907 136.331 48.5829C136.331 50.1052 136.345 51.0409 136.415 52.3817C136.457 53.1358 136.82 53.4151 137.588 53.5408V53.6246C136.876 53.5688 136.262 53.5408 135.689 53.5408C135.13 53.5408 134.516 53.5688 133.804 53.6246V53.5408C134.558 53.4151 134.935 53.1358 134.977 52.3677C135.047 51.1107 135.047 50.0074 135.047 48.5829C135.047 47.0187 135.033 45.4126 134.977 44.0579C134.041 44.0719 132.91 44.1277 132.365 44.1836C131.695 44.2674 131.527 44.6584 131.304 45.259L131.22 45.245C131.388 44.7562 131.583 43.7646 131.681 43.0943H131.765C131.751 43.4155 131.82 43.4434 131.988 43.4574C132.435 43.5132 134.67 43.5551 135.661 43.5551C136.653 43.5551 139.153 43.5132 139.655 43.4434C139.921 43.4155 140.046 43.3736 140.116 43.1222Z" fill="#866838"/>
<path d="M146.569 53.6805C143.538 53.6805 141.262 51.4739 141.262 48.541C141.262 45.5662 143.511 43.4015 146.485 43.4015C149.502 43.4015 151.792 45.6081 151.792 48.541C151.792 51.5158 149.558 53.6805 146.569 53.6805ZM146.681 53.1638C148.86 53.1638 150.382 51.2923 150.382 48.8343C150.382 46.3204 148.86 43.9182 146.374 43.9182C144.181 43.9182 142.659 45.7897 142.659 48.2477C142.659 50.7616 144.195 53.1638 146.681 53.1638Z" fill="#866838"/>
<path d="M160.527 53.6805C159.382 53.6805 158.614 53.2475 158.083 52.8565C158.125 52.256 158.139 51.7392 158.083 51.0968H158.167C158.46 52.5353 159.48 53.1498 160.541 53.1498C161.547 53.1498 162.441 52.633 162.441 51.4739C162.441 49.0577 158.307 48.5131 158.307 45.7897C158.307 44.1836 159.731 43.4015 161.212 43.4015C162.05 43.4015 162.678 43.6529 163.139 43.9182C163.069 44.4071 163.055 45.0774 163.139 45.6081H163.055C162.818 44.3093 161.994 43.9322 161.184 43.9322C160.08 43.9322 159.564 44.6026 159.564 45.3567C159.564 47.5215 163.712 48.0941 163.712 50.9432C163.712 52.6191 162.301 53.6805 160.527 53.6805Z" fill="#866838"/>
<path d="M176.85 43.5132V43.597C176.082 43.7227 175.719 44.03 175.677 44.7702C175.607 46.1109 175.593 47.0327 175.593 48.541C175.593 50.0493 175.607 50.9711 175.677 52.3118C175.719 53.066 176.096 53.3593 176.85 53.485V53.5688C176.138 53.5129 175.524 53.485 174.951 53.485C174.392 53.485 173.778 53.5129 173.065 53.5688V53.485C173.82 53.3593 174.197 53.052 174.239 52.2979C174.308 51.0549 174.308 50.0074 174.308 48.6108C173.359 48.555 172.367 48.541 171.32 48.541C170.314 48.541 169.504 48.555 168.61 48.6108C168.61 50.0773 168.61 50.999 168.694 52.3118C168.736 53.066 169.099 53.3593 169.867 53.485V53.5688C169.155 53.5129 168.527 53.485 167.968 53.485C167.395 53.485 166.781 53.5129 166.069 53.5688V53.485C166.823 53.3593 167.2 53.052 167.242 52.2979C167.311 51.0409 167.325 49.9655 167.325 48.541C167.325 47.1165 167.311 46.0411 167.242 44.7841C167.2 44.03 166.823 43.7227 166.069 43.597V43.5132C166.781 43.5691 167.395 43.597 167.968 43.597C168.527 43.597 169.155 43.5691 169.867 43.5132V43.597C169.099 43.7227 168.736 44.03 168.694 44.7702C168.624 45.9294 168.61 46.7673 168.61 47.9405C169.56 47.9963 170.552 48.0243 171.627 48.0243C172.647 48.0243 173.457 47.9963 174.308 47.9405C174.308 46.7952 174.294 45.8595 174.239 44.7841C174.197 44.03 173.82 43.7227 173.065 43.597V43.5132C173.778 43.5691 174.392 43.597 174.951 43.597C175.524 43.597 176.138 43.5691 176.85 43.5132Z" fill="#866838"/>
<path d="M182.687 43.5132V43.597C181.919 43.7227 181.556 44.03 181.514 44.7702C181.43 46.1109 181.43 47.0327 181.43 48.541C181.43 50.0493 181.43 50.9711 181.514 52.3118C181.556 53.066 181.919 53.3593 182.687 53.485V53.5688C181.975 53.5129 181.346 53.485 180.788 53.485C180.215 53.485 179.601 53.5129 178.888 53.5688V53.485C179.642 53.3593 180.02 53.052 180.061 52.2979C180.131 51.0409 180.145 49.9655 180.145 48.541C180.145 47.1165 180.131 46.0411 180.061 44.7841C180.02 44.03 179.642 43.7227 178.888 43.597V43.5132C179.601 43.5691 180.215 43.597 180.788 43.597C181.346 43.597 181.975 43.5691 182.687 43.5132Z" fill="#866838"/>
<path d="M193.472 43.5831C193.947 43.5831 194.366 43.5551 195.036 43.4993V43.5831C194.338 43.7088 193.961 43.9601 193.919 44.7422C193.849 45.9154 193.807 46.7952 193.807 48.6108C193.807 50.1192 193.807 52.0604 193.849 53.6805H193.821C191.531 51.1666 189.073 48.6527 186.489 46.1388V48.2896C186.489 50.1611 186.517 51.0688 186.587 52.3118C186.629 53.1219 187.006 53.3732 187.69 53.4989V53.5827C187.006 53.5269 186.573 53.4989 186.098 53.4989C185.623 53.4989 185.232 53.5269 184.548 53.5827V53.4989C185.246 53.3732 185.609 53.1219 185.651 52.3118C185.721 51.0828 185.763 50.1611 185.763 48.2896C185.763 46.8371 185.763 44.854 185.721 43.4015H185.749C188.221 46.0132 190.679 48.5131 193.109 50.9292V48.555C193.109 46.7533 193.081 45.9014 193.011 44.7562C192.955 43.9601 192.578 43.7088 191.894 43.5831V43.4993C192.564 43.5551 193.011 43.5831 193.472 43.5831Z" fill="#866838"/>
<path d="M203.271 51.4878L203.355 51.5018C203.285 52.1861 203.285 52.8425 203.355 53.5688C202.112 53.485 201.26 53.4989 200.325 53.4989C199.445 53.4989 197.783 53.5129 196.945 53.5827V53.4989C197.685 53.3732 198.076 53.1219 198.118 52.3118C198.188 51.027 198.188 50.0773 198.188 48.541C198.188 47.1723 198.188 46.0411 198.118 44.7841C198.076 44.016 197.699 43.7088 196.959 43.5831V43.4993C197.811 43.5691 198.998 43.5831 200.325 43.5831C201.33 43.5831 202.489 43.5551 203.299 43.4993C203.258 44.0439 203.244 44.7562 203.299 45.4126H203.216C203.006 44.2953 202.461 44.0439 201.121 44.0439C200.688 44.0439 200.157 44.0579 199.557 44.1277C199.487 45.9852 199.473 46.893 199.473 48.0382C199.892 48.0522 200.339 48.0522 201.065 48.0382C202.029 48.0243 202.21 47.6472 202.364 47.0327L202.447 47.0466C202.406 47.4517 202.364 47.8706 202.364 48.2617C202.364 48.6527 202.392 49.0717 202.447 49.4628L202.364 49.4767C202.182 48.8064 202.042 48.541 201.065 48.5131C200.492 48.4991 199.975 48.4991 199.473 48.4991V48.541C199.473 50.0633 199.487 51.1806 199.529 51.9347C199.598 52.8844 200.297 52.9682 201.372 52.9682C202.517 52.9682 202.978 52.7308 203.271 51.4878Z" fill="#866838"/>
</svg>
