<svg width="308" height="287" viewBox="0 0 308 287" fill="none" xmlns="http://www.w3.org/2000/svg">
<rect width="308" height="287" rx="12" fill="#FBF7F3"/>
<circle cx="40" cy="40" r="40" transform="matrix(1 0 0 -1 114 110)" fill="url(#paint0_linear_387_122)"/>
<path d="M119.625 202L125.891 183.28H129.115L135.381 202H132.976L127.113 184.632H127.841L122.03 202H119.625ZM122.641 197.619V195.448H132.365V197.619H122.641ZM138.388 202V187.193C138.388 186.829 138.405 186.461 138.44 186.088C138.474 185.707 138.552 185.338 138.674 184.983C138.795 184.619 138.994 184.285 139.272 183.982C139.592 183.627 139.943 183.375 140.325 183.228C140.706 183.072 141.092 182.977 141.482 182.942C141.88 182.907 142.257 182.89 142.613 182.89H144.394V184.814H142.743C142.058 184.814 141.547 184.983 141.209 185.321C140.871 185.65 140.702 186.153 140.702 186.829V202H138.388ZM136.009 189.871V187.96H144.394V189.871H136.009ZM146.468 202V187.96H148.535V191.353L148.197 190.911C148.362 190.478 148.574 190.079 148.834 189.715C149.103 189.351 149.402 189.052 149.731 188.818C150.095 188.523 150.507 188.298 150.966 188.142C151.426 187.986 151.894 187.895 152.37 187.869C152.847 187.834 153.293 187.865 153.709 187.96V190.131C153.224 190.001 152.691 189.966 152.11 190.027C151.53 190.088 150.992 190.3 150.498 190.664C150.048 190.985 149.697 191.375 149.445 191.834C149.203 192.293 149.034 192.792 148.938 193.329C148.843 193.858 148.795 194.399 148.795 194.954V202H146.468ZM156.428 185.477V183.085H158.742V185.477H156.428ZM156.428 202V187.96H158.742V202H156.428ZM168.557 202.39C167.136 202.39 165.927 202.074 164.93 201.441C163.942 200.8 163.188 199.92 162.668 198.802C162.148 197.684 161.88 196.41 161.862 194.98C161.88 193.515 162.153 192.228 162.681 191.119C163.219 190.001 163.986 189.13 164.982 188.506C165.979 187.882 167.179 187.57 168.583 187.57C170.065 187.57 171.339 187.934 172.405 188.662C173.48 189.39 174.199 190.387 174.563 191.652L172.275 192.341C171.981 191.526 171.5 190.894 170.832 190.443C170.174 189.992 169.415 189.767 168.557 189.767C167.595 189.767 166.802 189.992 166.178 190.443C165.554 190.885 165.091 191.5 164.787 192.289C164.484 193.069 164.328 193.966 164.319 194.98C164.337 196.54 164.696 197.801 165.398 198.763C166.109 199.716 167.162 200.193 168.557 200.193C169.476 200.193 170.239 199.985 170.845 199.569C171.452 199.144 171.911 198.533 172.223 197.736L174.563 198.347C174.078 199.656 173.32 200.657 172.288 201.35C171.257 202.043 170.013 202.39 168.557 202.39ZM181.081 202.39C180.032 202.39 179.152 202.199 178.442 201.818C177.74 201.428 177.207 200.917 176.843 200.284C176.487 199.651 176.31 198.958 176.31 198.204C176.31 197.467 176.448 196.83 176.726 196.293C177.012 195.747 177.41 195.296 177.922 194.941C178.433 194.577 179.044 194.291 179.755 194.083C180.422 193.901 181.167 193.745 181.991 193.615C182.823 193.476 183.663 193.351 184.513 193.238C185.362 193.125 186.155 193.017 186.892 192.913L186.06 193.394C186.086 192.146 185.834 191.223 185.306 190.625C184.786 190.027 183.884 189.728 182.602 189.728C181.752 189.728 181.007 189.923 180.366 190.313C179.733 190.694 179.287 191.318 179.027 192.185L176.83 191.522C177.168 190.291 177.822 189.325 178.793 188.623C179.763 187.921 181.042 187.57 182.628 187.57C183.902 187.57 184.994 187.8 185.904 188.259C186.822 188.71 187.481 189.394 187.88 190.313C188.079 190.746 188.205 191.219 188.257 191.73C188.309 192.233 188.335 192.761 188.335 193.316V202H186.281V198.633L186.762 198.945C186.233 200.08 185.492 200.938 184.539 201.519C183.594 202.1 182.441 202.39 181.081 202.39ZM181.432 200.453C182.264 200.453 182.983 200.306 183.59 200.011C184.205 199.708 184.699 199.313 185.072 198.828C185.444 198.334 185.687 197.797 185.8 197.216C185.93 196.783 185.999 196.302 186.008 195.773C186.025 195.236 186.034 194.824 186.034 194.538L186.84 194.889C186.086 194.993 185.345 195.093 184.617 195.188C183.889 195.283 183.2 195.387 182.55 195.5C181.9 195.604 181.315 195.73 180.795 195.877C180.413 195.998 180.054 196.154 179.716 196.345C179.386 196.536 179.118 196.783 178.91 197.086C178.71 197.381 178.611 197.749 178.611 198.191C178.611 198.572 178.706 198.936 178.897 199.283C179.096 199.63 179.399 199.911 179.807 200.128C180.223 200.345 180.764 200.453 181.432 200.453Z" fill="#392A1A"/>
<path d="M119 127.5H121.5V122.5H124V127.5H126.5V122.5H129V127.5H131.5V122.5H134V120H126.5V106.025L131.745 104.975L131.255 102.525L128.37 103.101L131.226 99.5312L129.274 97.9688L126.5 101.436V95H124V101.436L121.226 97.9688L119.274 99.5312L122.13 103.101L119.245 102.525L118.755 104.975L124 106.025V120H116.5V122.5H119V127.5Z" fill="black"/>
<path d="M142.75 98.75H140.25V103.75H142.75V98.75Z" fill="black"/>
<path d="M142.75 106.25H140.25V111.25H142.75V106.25Z" fill="black"/>
<path d="M180.25 98.75H177.75V103.75H180.25V98.75Z" fill="black"/>
<path d="M180.25 106.25H177.75V111.25H180.25V106.25Z" fill="black"/>
<path d="M143.116 77.8665L140.616 80.3661L142.384 82.1339L144.884 79.6342L143.116 77.8665Z" fill="black"/>
<path d="M151.133 77.8668L149.365 79.6345L151.865 82.1341L153.633 80.3664L151.133 77.8668Z" fill="black"/>
<path d="M154.366 70.3657L151.866 72.8654L153.634 74.6331L156.134 72.1335L154.366 70.3657Z" fill="black"/>
<path d="M159.884 64.1169L158.116 65.8846L160.616 68.3843L162.384 66.6165L159.884 64.1169Z" fill="black"/>
<path d="M159.366 74.1168L156.866 76.6165L158.634 78.3842L161.134 75.8846L159.366 74.1168Z" fill="black"/>
<path d="M164.884 70.3658L163.116 72.1335L165.616 74.6332L167.384 72.8654L164.884 70.3658Z" fill="black"/>
<path d="M163.116 79.1157L160.616 81.6154L162.384 83.3831L164.884 80.8835L163.116 79.1157Z" fill="black"/>
<path d="M169.884 75.3658L168.116 77.1335L170.616 79.6332L172.384 77.8654L169.884 75.3658Z" fill="black"/>
<path d="M176.866 77.8666L174.366 80.3662L176.134 82.134L178.634 79.6344L176.866 77.8666Z" fill="black"/>
<path d="M117.75 71.25H140.25C140.581 71.25 140.899 71.1183 141.134 70.8839C141.368 70.6495 141.5 70.3315 141.5 70V68.75C141.515 68.0893 141.395 67.4325 141.149 66.8191C140.903 66.2058 140.536 65.6487 140.068 65.1814C139.601 64.7141 139.044 64.3463 138.431 64.1003C137.817 63.8543 137.16 63.7351 136.5 63.75H136.14C135.097 61.4412 132.412 60 129 60C125.361 60 123.025 61.2287 121.888 63.75H121.5C120.831 63.7033 120.16 63.8006 119.532 64.0354C118.905 64.2701 118.334 64.6369 117.86 65.1108C117.387 65.5848 117.02 66.1549 116.785 66.7827C116.55 67.4105 116.453 68.0814 116.5 68.75V70C116.5 70.3315 116.631 70.6495 116.866 70.8839C117.1 71.1183 117.418 71.25 117.75 71.25ZM121.5 66.25H122.75C123.016 66.2503 123.275 66.1656 123.49 66.0082C123.705 65.8508 123.864 65.629 123.943 65.375C124.407 63.875 125.341 62.5 129 62.5C131.021 62.5 133.553 63.2288 134.032 65.2838C134.096 65.5586 134.251 65.8037 134.472 65.9791C134.694 66.1546 134.967 66.25 135.25 66.25H136.5C136.832 66.2345 137.164 66.2886 137.474 66.4087C137.785 66.5289 138.067 66.7125 138.302 66.9478C138.537 67.1831 138.721 67.4649 138.841 67.7753C138.961 68.0856 139.015 68.4176 139 68.75H119C118.958 68.4117 118.994 68.0682 119.104 67.7458C119.215 67.4234 119.398 67.1305 119.639 66.8894C119.88 66.6483 120.173 66.4654 120.495 66.3546C120.818 66.2438 121.161 66.208 121.5 66.25Z" fill="black"/>
<path d="M186.5 56.25H186.14C185.098 53.9413 182.412 52.5 179 52.5C175.361 52.5 173.025 53.7288 171.889 56.25H171.5C170.831 56.2033 170.16 56.3006 169.533 56.5354C168.905 56.7701 168.335 57.1369 167.861 57.6108C167.387 58.0848 167.02 58.6549 166.785 59.2827C166.551 59.9105 166.453 60.5814 166.5 61.25V62.1363C164.512 59.3564 162.805 56.386 161.404 53.2688C161.309 53.041 161.149 52.8465 160.943 52.7096C160.738 52.5728 160.497 52.4998 160.25 52.4998C160.003 52.4998 159.762 52.5728 159.557 52.7096C159.351 52.8465 159.191 53.041 159.096 53.2688C159.035 53.415 152.914 67.865 142.243 72.6075C139.438 73.7442 136.976 75.587 135.094 77.957C133.213 80.327 131.977 83.1434 131.506 86.1325C131.5 86.1725 131.5 86.25 131.5 86.25V92.5H134V87.5H136.42L134 126.173C133.989 126.343 134.014 126.514 134.072 126.675C134.13 126.835 134.22 126.983 134.338 127.107C134.455 127.231 134.596 127.33 134.753 127.398C134.91 127.466 135.079 127.5 135.25 127.5H185.25C185.421 127.5 185.59 127.466 185.747 127.398C185.904 127.33 186.045 127.231 186.162 127.107C186.28 126.983 186.37 126.835 186.428 126.675C186.486 126.514 186.511 126.343 186.5 126.173L184.08 87.5H186.5V92.5H189V86.25C189 86.25 189 86.1725 188.994 86.1325C188.523 83.1434 187.287 80.327 185.406 77.957C183.524 75.587 181.062 73.7442 178.257 72.6075C174.075 70.5435 170.452 67.5013 167.696 63.7388C167.715 63.7388 167.731 63.75 167.75 63.75H190.25C190.582 63.75 190.899 63.6183 191.134 63.3839C191.368 63.1495 191.5 62.8315 191.5 62.5V61.25C191.515 60.5893 191.396 59.9325 191.15 59.3191C190.904 58.7058 190.536 58.1487 190.069 57.6814C189.601 57.2141 189.044 56.8463 188.431 56.6003C187.818 56.3543 187.161 56.2351 186.5 56.25ZM171.939 108.441C170.544 106.69 169 104.301 169 102.5H166.5C166.744 104.866 167.677 107.109 169.182 108.95C165.355 106.914 163.058 102.418 162.046 100H171.555L171.939 108.441ZM151.5 102.5C151.5 104.296 149.956 106.685 148.561 108.439L148.945 100H158.452C157.452 102.418 155.145 106.914 151.318 108.95C152.823 107.109 153.756 104.866 154 102.5H151.5ZM148.375 112.431C153.532 111.896 156.951 107.981 159 104.526V125H147.809L148.375 112.431ZM161.5 125V104.526C163.544 107.981 166.963 111.901 172.125 112.431L172.691 125H161.5ZM183.608 120H180.25V122.5H183.764L183.92 125H175.195L174 98.6938C173.986 98.3721 173.847 98.0684 173.615 97.846C173.382 97.6236 173.072 97.4997 172.75 97.5H147.75C147.428 97.4997 147.118 97.6236 146.885 97.846C146.653 98.0684 146.514 98.3721 146.5 98.6938L145.305 125H136.58L136.736 122.5H141.5V120H136.892L138.924 87.5H141.5V92.5H144V87.5H146.5V92.5H149V87.5H151.5V92.5H154V87.5H156.5V92.5H159V87.5H161.5V92.5H164V87.5H166.5V92.5H169V87.5H171.5V92.5H174V87.5H176.5V92.5H179V87.5H181.576L183.608 120ZM177.243 74.8925C179.411 75.7823 181.348 77.1553 182.906 78.9068C184.464 80.6584 185.602 82.7423 186.232 85H134.268C134.898 82.7423 136.036 80.6583 137.594 78.9067C139.152 77.1552 141.089 75.7822 143.257 74.8925C152.14 70.945 157.923 61.2563 160.25 56.68C162.577 61.2563 168.36 70.945 177.243 74.8925ZM169 61.25C168.958 60.9117 168.994 60.5682 169.105 60.2458C169.215 59.9234 169.398 59.6305 169.639 59.3894C169.88 59.1483 170.173 58.9655 170.496 58.8546C170.818 58.7438 171.162 58.7081 171.5 58.75H172.75C173.016 58.7503 173.276 58.6656 173.49 58.5082C173.705 58.3508 173.864 58.129 173.944 57.875C174.408 56.375 175.341 55 179 55C181.021 55 183.554 55.7288 184.033 57.7838C184.097 58.0586 184.252 58.3037 184.473 58.4791C184.694 58.6546 184.968 58.75 185.25 58.75H186.5C186.832 58.7345 187.164 58.7886 187.475 58.9087C187.785 59.0289 188.067 59.2125 188.302 59.4478C188.538 59.6831 188.721 59.9649 188.841 60.2753C188.961 60.5856 189.015 60.9176 189 61.25H169Z" fill="black"/>
<rect y="240" width="308" height="47" fill="url(#paint1_linear_387_122)"/>
<path d="M109.402 271.285C108.433 271.285 107.578 271.079 106.837 270.667C106.096 270.249 105.516 269.67 105.098 268.929C104.687 268.188 104.481 267.333 104.481 266.364V261.956C104.481 260.987 104.687 260.132 105.098 259.391C105.516 258.65 106.096 258.074 106.837 257.662C107.578 257.244 108.433 257.035 109.402 257.035C110.371 257.035 111.223 257.244 111.957 257.662C112.698 258.074 113.278 258.65 113.696 259.391C114.114 260.132 114.323 260.987 114.323 261.956V266.364C114.323 267.333 114.114 268.188 113.696 268.929C113.278 269.67 112.698 270.249 111.957 270.667C111.223 271.079 110.371 271.285 109.402 271.285ZM109.402 269.109C109.883 269.109 110.32 268.995 110.713 268.767C111.106 268.533 111.416 268.223 111.644 267.836C111.872 267.444 111.986 267.007 111.986 266.525V261.785C111.986 261.297 111.872 260.86 111.644 260.474C111.416 260.081 111.106 259.771 110.713 259.543C110.32 259.309 109.883 259.191 109.402 259.191C108.921 259.191 108.484 259.309 108.091 259.543C107.698 259.771 107.388 260.081 107.16 260.474C106.932 260.86 106.818 261.297 106.818 261.785V266.525C106.818 267.007 106.932 267.444 107.16 267.836C107.388 268.223 107.698 268.533 108.091 268.767C108.484 268.995 108.921 269.109 109.402 269.109ZM121.043 271.285C120.347 271.285 119.697 271.143 119.096 270.857C118.494 270.566 117.975 270.167 117.538 269.66C117.107 269.154 116.797 268.565 116.607 267.893L118.811 267.304C118.899 267.672 119.061 267.988 119.295 268.254C119.536 268.52 119.815 268.726 120.131 268.872C120.454 269.018 120.787 269.09 121.129 269.09C121.572 269.09 121.977 268.983 122.345 268.767C122.712 268.552 123.003 268.264 123.219 267.903C123.434 267.536 123.542 267.13 123.542 266.687C123.542 266.244 123.431 265.841 123.209 265.48C122.994 265.113 122.703 264.825 122.335 264.616C121.968 264.401 121.566 264.293 121.129 264.293C120.603 264.293 120.166 264.388 119.818 264.578C119.476 264.768 119.213 264.971 119.029 265.186L117.072 264.559L117.49 257.32H124.919V259.467H118.716L119.571 258.659L119.267 263.694L118.849 263.181C119.203 262.858 119.615 262.618 120.084 262.459C120.552 262.301 121.005 262.222 121.442 262.222C122.297 262.222 123.054 262.418 123.713 262.811C124.378 263.197 124.897 263.726 125.271 264.397C125.651 265.069 125.841 265.832 125.841 266.687C125.841 267.542 125.619 268.318 125.176 269.014C124.732 269.705 124.147 270.256 123.418 270.667C122.696 271.079 121.905 271.285 121.043 271.285ZM136.987 271.285C135.986 271.285 135.084 271.111 134.279 270.762C133.481 270.414 132.823 269.917 132.303 269.271C131.79 268.619 131.464 267.846 131.325 266.953L133.7 266.592C133.902 267.403 134.317 268.03 134.944 268.473C135.578 268.916 136.306 269.138 137.129 269.138C137.617 269.138 138.076 269.062 138.507 268.91C138.937 268.758 139.286 268.536 139.552 268.245C139.824 267.954 139.96 267.596 139.96 267.171C139.96 266.981 139.929 266.807 139.865 266.649C139.802 266.484 139.707 266.339 139.58 266.212C139.46 266.085 139.302 265.971 139.105 265.87C138.915 265.762 138.694 265.67 138.44 265.594L134.906 264.549C134.602 264.461 134.273 264.344 133.918 264.198C133.57 264.046 133.237 263.84 132.921 263.58C132.61 263.314 132.354 262.979 132.151 262.573C131.955 262.162 131.857 261.655 131.857 261.053C131.857 260.173 132.078 259.435 132.522 258.84C132.971 258.238 133.573 257.789 134.327 257.491C135.087 257.193 135.929 257.048 136.854 257.054C137.791 257.06 138.627 257.222 139.362 257.538C140.096 257.849 140.711 258.302 141.205 258.897C141.699 259.492 142.047 260.211 142.25 261.053L139.789 261.481C139.688 261 139.492 260.591 139.2 260.255C138.915 259.913 138.564 259.654 138.146 259.476C137.734 259.299 137.294 259.204 136.825 259.191C136.369 259.185 135.945 259.255 135.552 259.4C135.166 259.54 134.852 259.742 134.612 260.008C134.377 260.274 134.26 260.585 134.26 260.939C134.26 261.275 134.362 261.551 134.564 261.766C134.767 261.975 135.017 262.143 135.315 262.269C135.619 262.39 135.926 262.491 136.236 262.573L138.687 263.257C139.023 263.346 139.4 263.466 139.818 263.618C140.236 263.77 140.638 263.983 141.024 264.255C141.411 264.527 141.727 264.885 141.974 265.328C142.228 265.772 142.354 266.335 142.354 267.019C142.354 267.729 142.205 268.353 141.908 268.891C141.616 269.423 141.221 269.866 140.72 270.221C140.22 270.576 139.647 270.842 139.001 271.019C138.361 271.196 137.69 271.285 136.987 271.285ZM147.698 271V259.467H143.271V257.32H154.414V259.467H149.987V271H147.698ZM161.719 271.285C160.351 271.285 159.179 270.987 158.204 270.392C157.228 269.79 156.478 268.954 155.952 267.884C155.433 266.814 155.173 265.572 155.173 264.16C155.173 262.748 155.433 261.506 155.952 260.436C156.478 259.366 157.228 258.533 158.204 257.937C159.179 257.336 160.351 257.035 161.719 257.035C163.087 257.035 164.258 257.336 165.234 257.937C166.215 258.533 166.966 259.366 167.485 260.436C168.011 261.506 168.274 262.748 168.274 264.16C168.274 265.572 168.011 266.814 167.485 267.884C166.966 268.954 166.215 269.79 165.234 270.392C164.258 270.987 163.087 271.285 161.719 271.285ZM161.719 269.128C162.637 269.135 163.4 268.932 164.008 268.52C164.622 268.109 165.082 267.529 165.386 266.782C165.696 266.035 165.851 265.161 165.851 264.16C165.851 263.159 165.696 262.292 165.386 261.557C165.082 260.816 164.622 260.24 164.008 259.828C163.4 259.416 162.637 259.204 161.719 259.191C160.8 259.185 160.037 259.388 159.429 259.799C158.821 260.211 158.362 260.791 158.052 261.538C157.748 262.285 157.596 263.159 157.596 264.16C157.596 265.161 157.748 266.031 158.052 266.772C158.356 267.507 158.812 268.08 159.42 268.492C160.034 268.904 160.8 269.116 161.719 269.128ZM170.164 271V257.32H175.817C175.95 257.32 176.121 257.326 176.33 257.339C176.539 257.345 176.732 257.364 176.909 257.396C177.701 257.516 178.353 257.779 178.866 258.184C179.386 258.59 179.769 259.103 180.016 259.723C180.269 260.338 180.396 261.022 180.396 261.775C180.396 262.89 180.114 263.85 179.55 264.654C178.987 265.452 178.122 265.946 176.957 266.136L175.978 266.221H172.454V271H170.164ZM178.021 271L175.323 265.433L177.65 264.92L180.614 271H178.021ZM172.454 264.084H175.722C175.849 264.084 175.991 264.078 176.149 264.065C176.308 264.052 176.453 264.027 176.586 263.989C176.966 263.894 177.264 263.726 177.479 263.485C177.701 263.245 177.856 262.972 177.945 262.668C178.04 262.364 178.087 262.067 178.087 261.775C178.087 261.484 178.04 261.186 177.945 260.882C177.856 260.572 177.701 260.297 177.479 260.056C177.264 259.815 176.966 259.647 176.586 259.552C176.453 259.514 176.308 259.492 176.149 259.486C175.991 259.473 175.849 259.467 175.722 259.467H172.454V264.084ZM182.707 271V257.32H191.542V259.467H184.997V262.839H190.402V264.986H184.997V268.853H191.542V271H182.707ZM198.755 271.285C197.755 271.285 196.852 271.111 196.048 270.762C195.25 270.414 194.591 269.917 194.072 269.271C193.559 268.619 193.233 267.846 193.093 266.953L195.468 266.592C195.671 267.403 196.086 268.03 196.713 268.473C197.346 268.916 198.074 269.138 198.898 269.138C199.385 269.138 199.845 269.062 200.275 268.91C200.706 268.758 201.054 268.536 201.32 268.245C201.593 267.954 201.729 267.596 201.729 267.171C201.729 266.981 201.697 266.807 201.634 266.649C201.57 266.484 201.475 266.339 201.349 266.212C201.228 266.085 201.07 265.971 200.874 265.87C200.684 265.762 200.462 265.67 200.209 265.594L196.675 264.549C196.371 264.461 196.041 264.344 195.687 264.198C195.338 264.046 195.006 263.84 194.689 263.58C194.379 263.314 194.122 262.979 193.92 262.573C193.723 262.162 193.625 261.655 193.625 261.053C193.625 260.173 193.847 259.435 194.29 258.84C194.74 258.238 195.342 257.789 196.095 257.491C196.855 257.193 197.698 257.048 198.622 257.054C199.56 257.06 200.396 257.222 201.13 257.538C201.865 257.849 202.479 258.302 202.973 258.897C203.467 259.492 203.816 260.211 204.018 261.053L201.558 261.481C201.456 261 201.26 260.591 200.969 260.255C200.684 259.913 200.332 259.654 199.914 259.476C199.503 259.299 199.062 259.204 198.594 259.191C198.138 259.185 197.713 259.255 197.321 259.4C196.934 259.54 196.621 259.742 196.38 260.008C196.146 260.274 196.029 260.585 196.029 260.939C196.029 261.275 196.13 261.551 196.333 261.766C196.535 261.975 196.786 262.143 197.083 262.269C197.387 262.39 197.694 262.491 198.005 262.573L200.456 263.257C200.791 263.346 201.168 263.466 201.586 263.618C202.004 263.77 202.406 263.983 202.793 264.255C203.179 264.527 203.496 264.885 203.743 265.328C203.996 265.772 204.123 266.335 204.123 267.019C204.123 267.729 203.974 268.353 203.676 268.891C203.385 269.423 202.989 269.866 202.489 270.221C201.988 270.576 201.415 270.842 200.769 271.019C200.13 271.196 199.458 271.285 198.755 271.285Z" fill="black"/>
<defs>
<linearGradient id="paint0_linear_387_122" x1="40" y1="80" x2="40" y2="0" gradientUnits="userSpaceOnUse">
<stop stop-color="#EFE0CF"/>
<stop offset="1" stop-color="#EFE0CF" stop-opacity="0"/>
</linearGradient>
<linearGradient id="paint1_linear_387_122" x1="0" y1="263.5" x2="308" y2="263.5" gradientUnits="userSpaceOnUse">
<stop stop-color="#E6D0B7"/>
<stop offset="1" stop-color="#DEC19F"/>
</linearGradient>
</defs>
</svg>
