<svg width="309" height="287" viewBox="0 0 309 287" fill="none" xmlns="http://www.w3.org/2000/svg">
<rect width="309" height="287" rx="12" fill="#FBF7F3"/>
<rect y="240" width="309" height="47" fill="url(#paint0_linear_387_146)"/>
<path d="M120.268 202V183.28H126.04C126.231 183.28 126.565 183.284 127.041 183.293C127.518 183.302 127.973 183.336 128.406 183.397C129.854 183.588 131.063 184.116 132.033 184.983C133.013 185.841 133.749 186.933 134.243 188.259C134.737 189.585 134.984 191.045 134.984 192.64C134.984 194.235 134.737 195.695 134.243 197.021C133.749 198.347 133.013 199.443 132.033 200.31C131.063 201.168 129.854 201.692 128.406 201.883C127.973 201.935 127.514 201.97 127.028 201.987C126.552 201.996 126.222 202 126.04 202H120.268ZM122.647 199.79H126.04C126.37 199.79 126.738 199.781 127.145 199.764C127.553 199.738 127.908 199.699 128.211 199.647C129.234 199.456 130.062 199.027 130.694 198.36C131.327 197.693 131.791 196.861 132.085 195.864C132.38 194.867 132.527 193.793 132.527 192.64C132.527 191.461 132.376 190.374 132.072 189.377C131.778 188.38 131.314 187.553 130.681 186.894C130.049 186.235 129.225 185.815 128.211 185.633C127.908 185.572 127.548 185.533 127.132 185.516C126.716 185.499 126.352 185.49 126.04 185.49H122.647V199.79ZM143.296 202.364C142.394 202.364 141.619 202.221 140.969 201.935C140.327 201.649 139.794 201.268 139.37 200.791C138.945 200.314 138.611 199.786 138.369 199.205C138.126 198.624 137.953 198.031 137.849 197.424C137.753 196.817 137.706 196.25 137.706 195.721V187.96H140.046V194.993C140.046 195.652 140.106 196.289 140.228 196.904C140.349 197.519 140.553 198.074 140.839 198.568C141.133 199.062 141.523 199.452 142.009 199.738C142.503 200.024 143.118 200.167 143.855 200.167C144.435 200.167 144.964 200.067 145.441 199.868C145.917 199.669 146.325 199.374 146.663 198.984C147.001 198.585 147.261 198.083 147.443 197.476C147.625 196.869 147.716 196.163 147.716 195.357L149.237 195.825C149.237 197.177 148.99 198.343 148.496 199.322C148.01 200.301 147.321 201.055 146.429 201.584C145.545 202.104 144.5 202.364 143.296 202.364ZM147.976 202V198.243H147.716V187.96H150.043V202H147.976ZM160.13 202.39C158.813 202.39 157.704 202.065 156.802 201.415C155.901 200.756 155.216 199.868 154.748 198.75C154.289 197.623 154.059 196.362 154.059 194.967C154.059 193.554 154.289 192.289 154.748 191.171C155.216 190.053 155.901 189.173 156.802 188.532C157.712 187.891 158.826 187.57 160.143 187.57C161.443 187.57 162.561 187.895 163.497 188.545C164.442 189.186 165.166 190.066 165.668 191.184C166.171 192.302 166.422 193.563 166.422 194.967C166.422 196.371 166.171 197.632 165.668 198.75C165.166 199.868 164.442 200.756 163.497 201.415C162.561 202.065 161.439 202.39 160.13 202.39ZM153.669 202V183.28H155.996V191.665H155.736V202H153.669ZM159.844 200.271C160.772 200.271 161.539 200.037 162.145 199.569C162.752 199.101 163.207 198.468 163.51 197.671C163.814 196.865 163.965 195.964 163.965 194.967C163.965 193.979 163.814 193.086 163.51 192.289C163.216 191.492 162.756 190.859 162.132 190.391C161.517 189.923 160.733 189.689 159.779 189.689C158.869 189.689 158.115 189.914 157.517 190.365C156.919 190.807 156.473 191.427 156.178 192.224C155.884 193.013 155.736 193.927 155.736 194.967C155.736 195.99 155.879 196.904 156.165 197.71C156.46 198.507 156.911 199.136 157.517 199.595C158.124 200.046 158.9 200.271 159.844 200.271ZM173.263 202.39C172.214 202.39 171.335 202.199 170.624 201.818C169.922 201.428 169.389 200.917 169.025 200.284C168.67 199.651 168.492 198.958 168.492 198.204C168.492 197.467 168.631 196.83 168.908 196.293C169.194 195.747 169.593 195.296 170.104 194.941C170.615 194.577 171.226 194.291 171.937 194.083C172.604 193.901 173.35 193.745 174.173 193.615C175.005 193.476 175.846 193.351 176.695 193.238C177.544 193.125 178.337 193.017 179.074 192.913L178.242 193.394C178.268 192.146 178.017 191.223 177.488 190.625C176.968 190.027 176.067 189.728 174.784 189.728C173.935 189.728 173.189 189.923 172.548 190.313C171.915 190.694 171.469 191.318 171.209 192.185L169.012 191.522C169.35 190.291 170.004 189.325 170.975 188.623C171.946 187.921 173.224 187.57 174.81 187.57C176.084 187.57 177.176 187.8 178.086 188.259C179.005 188.71 179.663 189.394 180.062 190.313C180.261 190.746 180.387 191.219 180.439 191.73C180.491 192.233 180.517 192.761 180.517 193.316V202H178.463V198.633L178.944 198.945C178.415 200.08 177.674 200.938 176.721 201.519C175.776 202.1 174.624 202.39 173.263 202.39ZM173.614 200.453C174.446 200.453 175.165 200.306 175.772 200.011C176.387 199.708 176.881 199.313 177.254 198.828C177.627 198.334 177.869 197.797 177.982 197.216C178.112 196.783 178.181 196.302 178.19 195.773C178.207 195.236 178.216 194.824 178.216 194.538L179.022 194.889C178.268 194.993 177.527 195.093 176.799 195.188C176.071 195.283 175.382 195.387 174.732 195.5C174.082 195.604 173.497 195.73 172.977 195.877C172.596 195.998 172.236 196.154 171.898 196.345C171.569 196.536 171.3 196.783 171.092 197.086C170.893 197.381 170.793 197.749 170.793 198.191C170.793 198.572 170.888 198.936 171.079 199.283C171.278 199.63 171.582 199.911 171.989 200.128C172.405 200.345 172.947 200.453 173.614 200.453ZM184.157 185.477V183.085H186.471V185.477H184.157ZM184.157 202V187.96H186.471V202H184.157Z" fill="#392A1A"/>
<path d="M108.99 271V259.818L106.425 261.386V258.859L108.99 257.32H111.327V271H108.99ZM118.86 271.257C118.176 271.257 117.53 271.124 116.922 270.857C116.314 270.591 115.785 270.215 115.335 269.727C114.892 269.239 114.572 268.663 114.376 267.998L116.589 267.399C116.748 267.944 117.036 268.365 117.454 268.663C117.878 268.954 118.344 269.097 118.85 269.09C119.3 269.09 119.702 268.986 120.057 268.777C120.411 268.568 120.69 268.286 120.893 267.931C121.095 267.57 121.197 267.168 121.197 266.725C121.197 266.047 120.978 265.48 120.541 265.024C120.104 264.568 119.541 264.34 118.85 264.34C118.641 264.34 118.435 264.369 118.233 264.426C118.036 264.483 117.846 264.562 117.663 264.663L116.618 262.858L121.216 258.925L121.415 259.476H114.908V257.32H123.296V259.486L119.601 263.039L119.582 262.364C120.411 262.421 121.118 262.653 121.7 263.058C122.289 263.463 122.739 263.986 123.049 264.625C123.366 265.265 123.524 265.965 123.524 266.725C123.524 267.586 123.312 268.359 122.888 269.043C122.47 269.727 121.906 270.268 121.197 270.667C120.494 271.06 119.715 271.257 118.86 271.257ZM134.853 271.285C133.852 271.285 132.95 271.111 132.145 270.762C131.347 270.414 130.689 269.917 130.169 269.271C129.656 268.619 129.33 267.846 129.191 266.953L131.566 266.592C131.769 267.403 132.183 268.03 132.81 268.473C133.444 268.916 134.172 269.138 134.995 269.138C135.483 269.138 135.942 269.062 136.373 268.91C136.804 268.758 137.152 268.536 137.418 268.245C137.69 267.954 137.826 267.596 137.826 267.171C137.826 266.981 137.795 266.807 137.731 266.649C137.668 266.484 137.573 266.339 137.446 266.212C137.326 266.085 137.168 265.971 136.971 265.87C136.781 265.762 136.56 265.67 136.306 265.594L132.772 264.549C132.468 264.461 132.139 264.344 131.784 264.198C131.436 264.046 131.104 263.84 130.787 263.58C130.477 263.314 130.22 262.979 130.017 262.573C129.821 262.162 129.723 261.655 129.723 261.053C129.723 260.173 129.945 259.435 130.388 258.84C130.838 258.238 131.439 257.789 132.193 257.491C132.953 257.193 133.795 257.048 134.72 257.054C135.657 257.06 136.493 257.222 137.228 257.538C137.963 257.849 138.577 258.302 139.071 258.897C139.565 259.492 139.913 260.211 140.116 261.053L137.655 261.481C137.554 261 137.358 260.591 137.066 260.255C136.781 259.913 136.43 259.654 136.012 259.476C135.6 259.299 135.16 259.204 134.691 259.191C134.235 259.185 133.811 259.255 133.418 259.4C133.032 259.54 132.719 259.742 132.478 260.008C132.244 260.274 132.126 260.585 132.126 260.939C132.126 261.275 132.228 261.551 132.43 261.766C132.633 261.975 132.883 262.143 133.181 262.269C133.485 262.39 133.792 262.491 134.102 262.573L136.553 263.257C136.889 263.346 137.266 263.466 137.684 263.618C138.102 263.77 138.504 263.983 138.89 264.255C139.277 264.527 139.593 264.885 139.84 265.328C140.094 265.772 140.22 266.335 140.22 267.019C140.22 267.729 140.072 268.353 139.774 268.891C139.483 269.423 139.087 269.866 138.586 270.221C138.086 270.576 137.513 270.842 136.867 271.019C136.227 271.196 135.556 271.285 134.853 271.285ZM145.564 271V259.467H141.137V257.32H152.28V259.467H147.853V271H145.564ZM159.585 271.285C158.217 271.285 157.045 270.987 156.07 270.392C155.094 269.79 154.344 268.954 153.818 267.884C153.299 266.814 153.039 265.572 153.039 264.16C153.039 262.748 153.299 261.506 153.818 260.436C154.344 259.366 155.094 258.533 156.07 257.937C157.045 257.336 158.217 257.035 159.585 257.035C160.953 257.035 162.124 257.336 163.1 257.937C164.081 258.533 164.832 259.366 165.351 260.436C165.877 261.506 166.14 262.748 166.14 264.16C166.14 265.572 165.877 266.814 165.351 267.884C164.832 268.954 164.081 269.79 163.1 270.392C162.124 270.987 160.953 271.285 159.585 271.285ZM159.585 269.128C160.503 269.135 161.266 268.932 161.874 268.52C162.489 268.109 162.948 267.529 163.252 266.782C163.562 266.035 163.717 265.161 163.717 264.16C163.717 263.159 163.562 262.292 163.252 261.557C162.948 260.816 162.489 260.24 161.874 259.828C161.266 259.416 160.503 259.204 159.585 259.191C158.666 259.185 157.903 259.388 157.295 259.799C156.687 260.211 156.228 260.791 155.918 261.538C155.614 262.285 155.462 263.159 155.462 264.16C155.462 265.161 155.614 266.031 155.918 266.772C156.222 267.507 156.678 268.08 157.286 268.492C157.9 268.904 158.666 269.116 159.585 269.128ZM168.031 271V257.32H173.683C173.816 257.32 173.987 257.326 174.196 257.339C174.405 257.345 174.598 257.364 174.776 257.396C175.567 257.516 176.22 257.779 176.733 258.184C177.252 258.59 177.635 259.103 177.882 259.723C178.136 260.338 178.262 261.022 178.262 261.775C178.262 262.89 177.98 263.85 177.417 264.654C176.853 265.452 175.989 265.946 174.823 266.136L173.845 266.221H170.32V271H168.031ZM175.887 271L173.189 265.433L175.517 264.92L178.481 271H175.887ZM170.32 264.084H173.588C173.715 264.084 173.857 264.078 174.016 264.065C174.174 264.052 174.32 264.027 174.453 263.989C174.833 263.894 175.13 263.726 175.346 263.485C175.567 263.245 175.723 262.972 175.811 262.668C175.906 262.364 175.954 262.067 175.954 261.775C175.954 261.484 175.906 261.186 175.811 260.882C175.723 260.572 175.567 260.297 175.346 260.056C175.13 259.815 174.833 259.647 174.453 259.552C174.32 259.514 174.174 259.492 174.016 259.486C173.857 259.473 173.715 259.467 173.588 259.467H170.32V264.084ZM180.574 271V257.32H189.409V259.467H182.863V262.839H188.269V264.986H182.863V268.853H189.409V271H180.574ZM196.622 271.285C195.621 271.285 194.718 271.111 193.914 270.762C193.116 270.414 192.457 269.917 191.938 269.271C191.425 268.619 191.099 267.846 190.96 266.953L193.335 266.592C193.537 267.403 193.952 268.03 194.579 268.473C195.212 268.916 195.941 269.138 196.764 269.138C197.252 269.138 197.711 269.062 198.142 268.91C198.572 268.758 198.921 268.536 199.187 268.245C199.459 267.954 199.595 267.596 199.595 267.171C199.595 266.981 199.563 266.807 199.5 266.649C199.437 266.484 199.342 266.339 199.215 266.212C199.095 266.085 198.936 265.971 198.74 265.87C198.55 265.762 198.328 265.67 198.075 265.594L194.541 264.549C194.237 264.461 193.908 264.344 193.553 264.198C193.205 264.046 192.872 263.84 192.556 263.58C192.245 263.314 191.989 262.979 191.786 262.573C191.59 262.162 191.492 261.655 191.492 261.053C191.492 260.173 191.713 259.435 192.157 258.84C192.606 258.238 193.208 257.789 193.962 257.491C194.722 257.193 195.564 257.048 196.489 257.054C197.426 257.06 198.262 257.222 198.997 257.538C199.731 257.849 200.346 258.302 200.84 258.897C201.334 259.492 201.682 260.211 201.885 261.053L199.424 261.481C199.323 261 199.126 260.591 198.835 260.255C198.55 259.913 198.199 259.654 197.781 259.476C197.369 259.299 196.929 259.204 196.46 259.191C196.004 259.185 195.58 259.255 195.187 259.4C194.801 259.54 194.487 259.742 194.247 260.008C194.012 260.274 193.895 260.585 193.895 260.939C193.895 261.275 193.996 261.551 194.199 261.766C194.402 261.975 194.652 262.143 194.95 262.269C195.254 262.39 195.561 262.491 195.871 262.573L198.322 263.257C198.658 263.346 199.035 263.466 199.453 263.618C199.871 263.77 200.273 263.983 200.659 264.255C201.045 264.527 201.362 264.885 201.609 265.328C201.862 265.772 201.989 266.335 201.989 267.019C201.989 267.729 201.84 268.353 201.543 268.891C201.251 269.423 200.855 269.866 200.355 270.221C199.855 270.576 199.282 270.842 198.636 271.019C197.996 271.196 197.325 271.285 196.622 271.285Z" fill="black"/>
<circle cx="40" cy="40" r="40" transform="matrix(1 0 0 -1 115 110)" fill="url(#paint1_linear_387_146)"/>
<path d="M172.578 125.898V99.9945H167.89V80.878H163.203V65.6958H158.515V58.5656H156.172V51.7578H153.828V58.5656H151.484V70.733H146.797V85.9152H142.109V105.03H137.422V125.898H124.297V128.242H185.703V125.898H172.578ZM142.109 125.898H139.766V107.374H142.109V125.898ZM146.797 125.898H144.453V121.549H146.797V125.898ZM146.797 119.205H144.453V114.891H146.797V119.205ZM146.797 112.547H144.453V108.233H146.797V112.547ZM146.797 105.889H144.453V101.575H146.797V105.889ZM146.797 99.2312H144.453V94.917H146.797V99.2312ZM146.797 92.5733H144.453V88.2591H146.797V92.5733ZM165.547 83.2217V87.2502H158.515V83.2217H165.547ZM165.547 89.5939V93.6223H158.515V89.5939H165.547ZM153.828 60.9094H156.172V70.733H153.828V60.9094ZM156.172 125.898H152.344H149.141V78.1494H151.484V115.69H153.828V75.8056H149.141V73.0767H158.515V68.0395H160.859V80.878H156.172V125.898ZM160.859 125.898H158.515V95.9662H165.547V99.9945H160.859V125.898ZM170.234 125.898H163.203V123.033H170.234V125.898ZM170.234 120.689H163.203V117.86H170.234V120.689ZM170.234 115.516H163.203V112.686H170.234V115.516ZM170.234 110.342H163.203V107.512H170.234V110.342ZM170.234 105.168H163.203V102.338H170.234V105.168Z" fill="black"/>
<path d="M168.14 73.2869H175.171V75.6306H168.14V73.2869Z" fill="black"/>
<path d="M177.515 73.2869H179.858V75.6306H177.515V73.2869Z" fill="black"/>
<path d="M134.829 63.9117H141.86V66.2555H134.829V63.9117Z" fill="black"/>
<path d="M130.142 63.9117H132.485V66.2555H130.142V63.9117Z" fill="black"/>
<path d="M151.484 118.033H153.828V120.377H151.484V118.033Z" fill="black"/>
<defs>
<linearGradient id="paint0_linear_387_146" x1="0" y1="263.5" x2="309" y2="263.5" gradientUnits="userSpaceOnUse">
<stop stop-color="#E6D0B7"/>
<stop offset="1" stop-color="#DEC19F"/>
</linearGradient>
<linearGradient id="paint1_linear_387_146" x1="40" y1="80" x2="40" y2="0" gradientUnits="userSpaceOnUse">
<stop stop-color="#EFE0CF"/>
<stop offset="1" stop-color="#EFE0CF" stop-opacity="0"/>
</linearGradient>
</defs>
</svg>
