<svg width="308" height="287" viewBox="0 0 308 287" fill="none" xmlns="http://www.w3.org/2000/svg">
<g clip-path="url(#clip0_387_159)">
<rect width="308" height="287" rx="12" fill="#FBF7F3"/>
<path d="M98.2341 202V183.28H100.34L107.412 198.191L114.445 183.28H116.577V201.987H114.38V188.363L108.023 202H106.788L100.431 188.363V202H98.2341ZM124.213 202.39C123.165 202.39 122.285 202.199 121.574 201.818C120.872 201.428 120.339 200.917 119.975 200.284C119.62 199.651 119.442 198.958 119.442 198.204C119.442 197.467 119.581 196.83 119.858 196.293C120.144 195.747 120.543 195.296 121.054 194.941C121.566 194.577 122.177 194.291 122.887 194.083C123.555 193.901 124.3 193.745 125.123 193.615C125.955 193.476 126.796 193.351 127.645 193.238C128.495 193.125 129.288 193.017 130.024 192.913L129.192 193.394C129.218 192.146 128.967 191.223 128.438 190.625C127.918 190.027 127.017 189.728 125.734 189.728C124.885 189.728 124.14 189.923 123.498 190.313C122.866 190.694 122.419 191.318 122.159 192.185L119.962 191.522C120.3 190.291 120.955 189.325 121.925 188.623C122.896 187.921 124.174 187.57 125.76 187.57C127.034 187.57 128.126 187.8 129.036 188.259C129.955 188.71 130.614 189.394 131.012 190.313C131.212 190.746 131.337 191.219 131.389 191.73C131.441 192.233 131.467 192.761 131.467 193.316V202H129.413V198.633L129.894 198.945C129.366 200.08 128.625 200.938 127.671 201.519C126.727 202.1 125.574 202.39 124.213 202.39ZM124.564 200.453C125.396 200.453 126.116 200.306 126.722 200.011C127.338 199.708 127.832 199.313 128.204 198.828C128.577 198.334 128.82 197.797 128.932 197.216C129.062 196.783 129.132 196.302 129.14 195.773C129.158 195.236 129.166 194.824 129.166 194.538L129.972 194.889C129.218 194.993 128.477 195.093 127.749 195.188C127.021 195.283 126.332 195.387 125.682 195.5C125.032 195.604 124.447 195.73 123.927 195.877C123.546 195.998 123.186 196.154 122.848 196.345C122.519 196.536 122.25 196.783 122.042 197.086C121.843 197.381 121.743 197.749 121.743 198.191C121.743 198.572 121.839 198.936 122.029 199.283C122.229 199.63 122.532 199.911 122.939 200.128C123.355 200.345 123.897 200.453 124.564 200.453ZM140.177 202.364C139.276 202.364 138.5 202.221 137.85 201.935C137.209 201.649 136.676 201.268 136.251 200.791C135.827 200.314 135.493 199.786 135.25 199.205C135.008 198.624 134.834 198.031 134.73 197.424C134.635 196.817 134.587 196.25 134.587 195.721V187.96H136.927V194.993C136.927 195.652 136.988 196.289 137.109 196.904C137.231 197.519 137.434 198.074 137.72 198.568C138.015 199.062 138.405 199.452 138.89 199.738C139.384 200.024 140 200.167 140.736 200.167C141.317 200.167 141.846 200.067 142.322 199.868C142.799 199.669 143.206 199.374 143.544 198.984C143.882 198.585 144.142 198.083 144.324 197.476C144.506 196.869 144.597 196.163 144.597 195.357L146.118 195.825C146.118 197.177 145.871 198.343 145.377 199.322C144.892 200.301 144.203 201.055 143.31 201.584C142.426 202.104 141.382 202.364 140.177 202.364ZM144.857 202V198.243H144.597V187.96H146.924V202H144.857ZM150.564 202V187.96H152.631V191.353L152.293 190.911C152.458 190.478 152.67 190.079 152.93 189.715C153.199 189.351 153.498 189.052 153.827 188.818C154.191 188.523 154.603 188.298 155.062 188.142C155.521 187.986 155.989 187.895 156.466 187.869C156.943 187.834 157.389 187.865 157.805 187.96V190.131C157.32 190.001 156.787 189.966 156.206 190.027C155.625 190.088 155.088 190.3 154.594 190.664C154.143 190.985 153.792 191.375 153.541 191.834C153.298 192.293 153.129 192.792 153.034 193.329C152.939 193.858 152.891 194.399 152.891 194.954V202H150.564ZM160.523 185.477V183.085H162.837V185.477H160.523ZM160.523 202V187.96H162.837V202H160.523ZM174.577 202C173.745 202.165 172.922 202.23 172.107 202.195C171.301 202.169 170.582 202.009 169.949 201.714C169.316 201.411 168.835 200.943 168.506 200.31C168.229 199.755 168.077 199.196 168.051 198.633C168.034 198.061 168.025 197.415 168.025 196.696V184.06H170.339V196.592C170.339 197.164 170.343 197.654 170.352 198.061C170.369 198.468 170.46 198.819 170.625 199.114C170.937 199.669 171.431 199.994 172.107 200.089C172.792 200.184 173.615 200.158 174.577 200.011V202ZM165.178 189.871V187.96H174.577V189.871H165.178ZM177.687 185.477V183.085H180.001V185.477H177.687ZM177.687 202V187.96H180.001V202H177.687ZM189.232 202.364C188.331 202.364 187.555 202.221 186.905 201.935C186.264 201.649 185.731 201.268 185.306 200.791C184.881 200.314 184.548 199.786 184.305 199.205C184.062 198.624 183.889 198.031 183.785 197.424C183.69 196.817 183.642 196.25 183.642 195.721V187.96H185.982V194.993C185.982 195.652 186.043 196.289 186.164 196.904C186.285 197.519 186.489 198.074 186.775 198.568C187.07 199.062 187.46 199.452 187.945 199.738C188.439 200.024 189.054 200.167 189.791 200.167C190.372 200.167 190.9 200.067 191.377 199.868C191.854 199.669 192.261 199.374 192.599 198.984C192.937 198.585 193.197 198.083 193.379 197.476C193.561 196.869 193.652 196.163 193.652 195.357L195.173 195.825C195.173 197.177 194.926 198.343 194.432 199.322C193.947 200.301 193.258 201.055 192.365 201.584C191.481 202.104 190.437 202.364 189.232 202.364ZM193.912 202V198.243H193.652V187.96H195.979V202H193.912ZM204.923 202.377C203.25 202.377 201.876 202.013 200.802 201.285C199.736 200.548 199.081 199.521 198.839 198.204L201.205 197.827C201.395 198.59 201.833 199.196 202.518 199.647C203.202 200.089 204.052 200.31 205.066 200.31C206.028 200.31 206.782 200.111 207.328 199.712C207.874 199.313 208.147 198.772 208.147 198.087C208.147 197.688 208.056 197.368 207.874 197.125C207.692 196.874 207.315 196.64 206.743 196.423C206.179 196.206 205.326 195.946 204.182 195.643C202.942 195.314 201.967 194.971 201.257 194.616C200.546 194.261 200.039 193.849 199.736 193.381C199.432 192.913 199.281 192.345 199.281 191.678C199.281 190.855 199.506 190.135 199.957 189.52C200.407 188.896 201.036 188.415 201.842 188.077C202.656 187.739 203.601 187.57 204.676 187.57C205.742 187.57 206.695 187.739 207.536 188.077C208.376 188.415 209.052 188.896 209.564 189.52C210.084 190.135 210.391 190.855 210.487 191.678L208.121 192.107C208.008 191.353 207.644 190.759 207.029 190.326C206.422 189.893 205.638 189.663 204.676 189.637C203.766 189.602 203.025 189.763 202.453 190.118C201.889 190.473 201.608 190.954 201.608 191.561C201.608 191.899 201.712 192.189 201.92 192.432C202.136 192.675 202.531 192.904 203.103 193.121C203.683 193.338 204.524 193.585 205.625 193.862C206.864 194.174 207.839 194.516 208.55 194.889C209.269 195.253 209.78 195.686 210.084 196.189C210.387 196.683 210.539 197.294 210.539 198.022C210.539 199.374 210.04 200.44 209.044 201.22C208.047 201.991 206.673 202.377 204.923 202.377Z" fill="#392A1A"/>
<circle cx="40" cy="40" r="40" transform="matrix(1 0 0 -1 114 110)" fill="url(#paint0_linear_387_159)"/>
<path d="M129 72.5H134C134.332 72.5 134.649 72.3683 134.884 72.1339C135.118 71.8995 135.25 71.5815 135.25 71.25V66.25C135.25 65.2554 134.855 64.3016 134.152 63.5983C133.448 62.8951 132.495 62.5 131.5 62.5C130.505 62.5 129.552 62.8951 128.848 63.5983C128.145 64.3016 127.75 65.2554 127.75 66.25V71.25C127.75 71.5815 127.882 71.8995 128.116 72.1339C128.351 72.3683 128.668 72.5 129 72.5ZM130.25 66.25C130.25 65.9185 130.382 65.6005 130.616 65.3661C130.851 65.1317 131.168 65 131.5 65C131.832 65 132.149 65.1317 132.384 65.3661C132.618 65.6005 132.75 65.9185 132.75 66.25V70H130.25V66.25Z" fill="black"/>
<path d="M129 95H134C134.332 95 134.649 94.8683 134.884 94.6339C135.118 94.3995 135.25 94.0815 135.25 93.75V88.75C135.25 87.7554 134.855 86.8016 134.152 86.0983C133.448 85.3951 132.495 85 131.5 85C130.505 85 129.552 85.3951 128.848 86.0983C128.145 86.8016 127.75 87.7554 127.75 88.75V93.75C127.75 94.0815 127.882 94.3995 128.116 94.6339C128.351 94.8683 128.668 95 129 95ZM130.25 88.75C130.25 88.4185 130.382 88.1005 130.616 87.8661C130.851 87.6317 131.168 87.5 131.5 87.5C131.832 87.5 132.149 87.6317 132.384 87.8661C132.618 88.1005 132.75 88.4185 132.75 88.75V92.5H130.25V88.75Z" fill="black"/>
<path d="M174 72.5H179C179.332 72.5 179.649 72.3683 179.884 72.1339C180.118 71.8995 180.25 71.5815 180.25 71.25V66.25C180.25 65.2554 179.855 64.3016 179.152 63.5983C178.448 62.8951 177.495 62.5 176.5 62.5C175.505 62.5 174.552 62.8951 173.848 63.5983C173.145 64.3016 172.75 65.2554 172.75 66.25V71.25C172.75 71.5815 172.882 71.8995 173.116 72.1339C173.351 72.3683 173.668 72.5 174 72.5ZM175.25 66.25C175.25 65.9185 175.382 65.6005 175.616 65.3661C175.851 65.1317 176.168 65 176.5 65C176.832 65 177.149 65.1317 177.384 65.3661C177.618 65.6005 177.75 65.9185 177.75 66.25V70H175.25V66.25Z" fill="black"/>
<path d="M174 95H179C179.332 95 179.649 94.8683 179.884 94.6339C180.118 94.3995 180.25 94.0815 180.25 93.75V88.75C180.25 87.7554 179.855 86.8016 179.152 86.0983C178.448 85.3951 177.495 85 176.5 85C175.505 85 174.552 85.3951 173.848 86.0983C173.145 86.8016 172.75 87.7554 172.75 88.75V93.75C172.75 94.0815 172.882 94.3995 173.116 94.6339C173.351 94.8683 173.668 95 174 95ZM175.25 88.75C175.25 88.4185 175.382 88.1005 175.616 87.8661C175.851 87.6317 176.168 87.5 176.5 87.5C176.832 87.5 177.149 87.6317 177.384 87.8661C177.618 88.1005 177.75 88.4185 177.75 88.75V92.5H175.25V88.75Z" fill="black"/>
<path d="M190.25 107.125V91.25H191.5C191.713 91.2512 191.924 91.1976 192.111 91.0943C192.298 90.9911 192.455 90.8416 192.568 90.6602C192.681 90.4788 192.745 90.2715 192.755 90.0581C192.765 89.8447 192.72 89.6323 192.625 89.4412L190.125 84.4412C190.02 84.2325 189.86 84.0571 189.661 83.935C189.462 83.8128 189.233 83.7487 189 83.75H185.25V60H187.75V57.5H185.25V52.5C185.25 52.1685 185.118 51.8505 184.883 51.6161C184.649 51.3817 184.331 51.25 184 51.25H166.5C166.168 51.25 165.85 51.3817 165.616 51.6161C165.381 51.8505 165.25 52.1685 165.25 52.5V57.5H162.75V60H165.25V71.7275L155.25 66.7275V62.5H152.75V66.7275L142.75 71.7275V60H145.25V57.5H142.75V52.5C142.75 52.1685 142.618 51.8505 142.383 51.6161C142.149 51.3817 141.831 51.25 141.5 51.25H124C123.668 51.25 123.35 51.3817 123.116 51.6161C122.881 51.8505 122.75 52.1685 122.75 52.5V57.5H120.25V60H122.75V83.75H119C118.767 83.7499 118.54 83.8145 118.342 83.9366C118.144 84.0587 117.985 84.2335 117.881 84.4412L115.381 89.4412C115.286 89.6319 115.241 89.8437 115.25 90.0566C115.26 90.2694 115.324 90.4763 115.436 90.6575C115.548 90.8388 115.705 90.9883 115.891 91.092C116.077 91.1957 116.287 91.2501 116.5 91.25H117.75V107.125L115.46 110.556C115.323 110.762 115.25 111.003 115.25 111.25V127.5C115.25 127.832 115.381 128.149 115.616 128.384C115.85 128.618 116.168 128.75 116.5 128.75H191.5C191.831 128.75 192.149 128.618 192.383 128.384C192.618 128.149 192.75 127.832 192.75 127.5V111.25C192.749 111.003 192.676 110.762 192.54 110.556L190.25 107.125ZM187.75 98.75H185.25V91.25H187.75V98.75ZM188.227 86.25L189.477 88.75H185.25V86.25H188.227ZM182.75 57.5H180.25V53.75H182.75V57.5ZM172.75 57.5V53.75H177.75V57.5H172.75ZM167.75 53.75H170.25V57.5H167.75V53.75ZM167.75 60H182.75V126.25H180.25V112.5C180.25 112.168 180.118 111.851 179.883 111.616C179.649 111.382 179.331 111.25 179 111.25H174C173.668 111.25 173.35 111.382 173.116 111.616C172.881 111.851 172.75 112.168 172.75 112.5V126.25H170.25V75C170.25 74.7677 170.185 74.54 170.063 74.3424C169.941 74.1448 169.766 73.9851 169.558 73.8812L167.75 72.9775V60ZM177.75 126.25H175.25V113.75H177.75V126.25ZM162.75 106.25V126.25H160.25V118.75C160.241 116.729 159.789 114.734 158.925 112.906C158.061 111.078 156.807 109.463 155.25 108.174V105H152.75V108.174C151.193 109.463 149.938 111.078 149.074 112.906C148.21 114.734 147.758 116.729 147.75 118.75V126.25H145.25V106.25H142.75V126.25H140.25V101.25H167.75V126.25H165.25V106.25H162.75ZM154 110.366C155.176 111.424 156.118 112.716 156.764 114.16C157.41 115.604 157.746 117.168 157.75 118.75V126.25H150.25V118.75C150.253 117.168 150.589 115.604 151.235 114.16C151.881 112.716 152.823 111.424 154 110.366ZM140.25 78.75H146.5V76.25H140.25V75.7725L154 68.8975L167.75 75.7725V76.25H161.5V78.75H167.75V93.75H165.25V81.25H162.75V93.75H160.25V91.84C160.256 89.9266 159.726 88.0498 158.72 86.4222C157.714 84.7946 156.273 83.4813 154.558 82.6312C154.385 82.5446 154.194 82.4994 154 82.4994C153.806 82.4994 153.614 82.5446 153.441 82.6312C151.727 83.4813 150.285 84.7946 149.279 86.4222C148.273 88.0498 147.743 89.9266 147.75 91.84V93.75H145.25V81.25H142.75V93.75H140.25V78.75ZM152.75 88.75V93.75H150.25V91.84C150.245 90.4998 150.588 89.1814 151.246 88.0134C151.903 86.8455 152.852 85.868 154 85.1763C155.147 85.868 156.096 86.8455 156.754 88.0134C157.411 89.1814 157.754 90.4998 157.75 91.84V93.75H155.25V88.75H152.75ZM140.25 96.25H167.75V98.75H140.25V96.25ZM140.25 57.5H137.75V53.75H140.25V57.5ZM130.25 57.5V53.75H135.25V57.5H130.25ZM125.25 53.75H127.75V57.5H125.25V53.75ZM140.25 60V72.9775L138.442 73.8812C138.234 73.9849 138.059 74.1445 137.937 74.3421C137.814 74.5398 137.75 74.7676 137.75 75V126.25H135.25V112.5C135.25 112.168 135.118 111.851 134.883 111.616C134.649 111.382 134.331 111.25 134 111.25H129C128.668 111.25 128.35 111.382 128.116 111.616C127.881 111.851 127.75 112.168 127.75 112.5V126.25H125.25V60H140.25ZM132.75 126.25H130.25V113.75H132.75V126.25ZM119.772 86.25H122.75V88.75H118.522L119.772 86.25ZM122.75 91.25V98.75H120.25V91.25H122.75ZM117.75 111.625L120.04 108.19C120.175 107.985 120.248 107.746 120.25 107.5V101.25H122.75V126.25H117.75V111.625ZM190.25 126.25H185.25V101.25H187.75V107.5C187.75 107.747 187.823 107.988 187.96 108.194L190.25 111.625V126.25Z" fill="black"/>
<path d="M154 80C154.742 80 155.467 79.7801 156.083 79.368C156.7 78.956 157.181 78.3703 157.465 77.6851C157.748 76.9998 157.823 76.2458 157.678 75.5184C157.533 74.791 157.176 74.1228 156.652 73.5984C156.127 73.0739 155.459 72.7168 154.732 72.5721C154.004 72.4274 153.25 72.5016 152.565 72.7855C151.88 73.0693 151.294 73.5499 150.882 74.1666C150.47 74.7833 150.25 75.5083 150.25 76.25C150.25 77.2446 150.645 78.1984 151.348 78.9017C152.052 79.6049 153.005 80 154 80ZM154 75C154.247 75 154.489 75.0733 154.694 75.2107C154.9 75.348 155.06 75.5432 155.155 75.7716C155.249 76.0001 155.274 76.2514 155.226 76.4939C155.178 76.7363 155.059 76.9591 154.884 77.1339C154.709 77.3087 154.486 77.4278 154.244 77.476C154.001 77.5242 153.75 77.4995 153.522 77.4049C153.293 77.3102 153.098 77.15 152.961 76.9445C152.823 76.7389 152.75 76.4972 152.75 76.25C152.75 75.9185 152.882 75.6005 153.116 75.3661C153.351 75.1317 153.668 75 154 75Z" fill="black"/>
<path d="M150.25 103.75H147.75V106.25H150.25V103.75Z" fill="black"/>
<path d="M160.25 103.75H157.75V106.25H160.25V103.75Z" fill="black"/>
<rect x="-1" y="240" width="309" height="47" fill="url(#paint1_linear_387_159)"/>
<path d="M108.944 271V259.818L106.379 261.386V258.859L108.944 257.32H111.281V271H108.944ZM115.594 271L120.306 259.486H114.33V257.32H122.757V259.486L118.064 271H115.594ZM133.898 271.285C132.898 271.285 131.995 271.111 131.191 270.762C130.393 270.414 129.734 269.917 129.215 269.271C128.702 268.619 128.376 267.846 128.236 266.953L130.611 266.592C130.814 267.403 131.229 268.03 131.856 268.473C132.489 268.916 133.218 269.138 134.041 269.138C134.529 269.138 134.988 269.062 135.418 268.91C135.849 268.758 136.197 268.536 136.463 268.245C136.736 267.954 136.872 267.596 136.872 267.171C136.872 266.981 136.84 266.807 136.777 266.649C136.714 266.484 136.619 266.339 136.492 266.212C136.372 266.085 136.213 265.971 136.017 265.87C135.827 265.762 135.605 265.67 135.352 265.594L131.818 264.549C131.514 264.461 131.185 264.344 130.83 264.198C130.482 264.046 130.149 263.84 129.832 263.58C129.522 263.314 129.266 262.979 129.063 262.573C128.867 262.162 128.768 261.655 128.768 261.053C128.768 260.173 128.99 259.435 129.433 258.84C129.883 258.238 130.485 257.789 131.238 257.491C131.998 257.193 132.841 257.048 133.765 257.054C134.703 257.06 135.539 257.222 136.273 257.538C137.008 257.849 137.622 258.302 138.116 258.897C138.61 259.492 138.959 260.211 139.161 261.053L136.701 261.481C136.6 261 136.403 260.591 136.112 260.255C135.827 259.913 135.475 259.654 135.057 259.476C134.646 259.299 134.206 259.204 133.737 259.191C133.281 259.185 132.857 259.255 132.464 259.4C132.078 259.54 131.764 259.742 131.523 260.008C131.289 260.274 131.172 260.585 131.172 260.939C131.172 261.275 131.273 261.551 131.476 261.766C131.679 261.975 131.929 262.143 132.226 262.269C132.53 262.39 132.838 262.491 133.148 262.573L135.599 263.257C135.935 263.346 136.311 263.466 136.729 263.618C137.147 263.77 137.55 263.983 137.936 264.255C138.322 264.527 138.639 264.885 138.886 265.328C139.139 265.772 139.266 266.335 139.266 267.019C139.266 267.729 139.117 268.353 138.819 268.891C138.528 269.423 138.132 269.866 137.632 270.221C137.132 270.576 136.558 270.842 135.912 271.019C135.273 271.196 134.601 271.285 133.898 271.285ZM144.609 271V259.467H140.182V257.32H151.326V259.467H146.899V271H144.609ZM158.63 271.285C157.262 271.285 156.09 270.987 155.115 270.392C154.14 269.79 153.389 268.954 152.864 267.884C152.344 266.814 152.085 265.572 152.085 264.16C152.085 262.748 152.344 261.506 152.864 260.436C153.389 259.366 154.14 258.533 155.115 257.937C156.09 257.336 157.262 257.035 158.63 257.035C159.998 257.035 161.17 257.336 162.145 257.937C163.127 258.533 163.877 259.366 164.397 260.436C164.922 261.506 165.185 262.748 165.185 264.16C165.185 265.572 164.922 266.814 164.397 267.884C163.877 268.954 163.127 269.79 162.145 270.392C161.17 270.987 159.998 271.285 158.63 271.285ZM158.63 269.128C159.548 269.135 160.312 268.932 160.92 268.52C161.534 268.109 161.993 267.529 162.297 266.782C162.607 266.035 162.763 265.161 162.763 264.16C162.763 263.159 162.607 262.292 162.297 261.557C161.993 260.816 161.534 260.24 160.92 259.828C160.312 259.416 159.548 259.204 158.63 259.191C157.712 259.185 156.949 259.388 156.341 259.799C155.733 260.211 155.273 260.791 154.963 261.538C154.659 262.285 154.507 263.159 154.507 264.16C154.507 265.161 154.659 266.031 154.963 266.772C155.267 267.507 155.723 268.08 156.331 268.492C156.945 268.904 157.712 269.116 158.63 269.128ZM167.076 271V257.32H172.729C172.862 257.32 173.033 257.326 173.242 257.339C173.451 257.345 173.644 257.364 173.821 257.396C174.613 257.516 175.265 257.779 175.778 258.184C176.297 258.59 176.681 259.103 176.928 259.723C177.181 260.338 177.308 261.022 177.308 261.775C177.308 262.89 177.026 263.85 176.462 264.654C175.898 265.452 175.034 265.946 173.869 266.136L172.89 266.221H169.366V271H167.076ZM174.933 271L172.235 265.433L174.562 264.92L177.526 271H174.933ZM169.366 264.084H172.634C172.76 264.084 172.903 264.078 173.061 264.065C173.219 264.052 173.365 264.027 173.498 263.989C173.878 263.894 174.176 263.726 174.391 263.485C174.613 263.245 174.768 262.972 174.857 262.668C174.952 262.364 174.999 262.067 174.999 261.775C174.999 261.484 174.952 261.186 174.857 260.882C174.768 260.572 174.613 260.297 174.391 260.056C174.176 259.815 173.878 259.647 173.498 259.552C173.365 259.514 173.219 259.492 173.061 259.486C172.903 259.473 172.76 259.467 172.634 259.467H169.366V264.084ZM179.619 271V257.32H188.454V259.467H181.909V262.839H187.314V264.986H181.909V268.853H188.454V271H179.619ZM195.667 271.285C194.666 271.285 193.764 271.111 192.959 270.762C192.161 270.414 191.503 269.917 190.983 269.271C190.47 268.619 190.144 267.846 190.005 266.953L192.38 266.592C192.583 267.403 192.997 268.03 193.624 268.473C194.258 268.916 194.986 269.138 195.809 269.138C196.297 269.138 196.756 269.062 197.187 268.91C197.618 268.758 197.966 268.536 198.232 268.245C198.504 267.954 198.64 267.596 198.64 267.171C198.64 266.981 198.609 266.807 198.545 266.649C198.482 266.484 198.387 266.339 198.26 266.212C198.14 266.085 197.982 265.971 197.785 265.87C197.595 265.762 197.374 265.67 197.12 265.594L193.586 264.549C193.282 264.461 192.953 264.344 192.598 264.198C192.25 264.046 191.918 263.84 191.601 263.58C191.291 263.314 191.034 262.979 190.831 262.573C190.635 262.162 190.537 261.655 190.537 261.053C190.537 260.173 190.759 259.435 191.202 258.84C191.652 258.238 192.253 257.789 193.007 257.491C193.767 257.193 194.609 257.048 195.534 257.054C196.471 257.06 197.307 257.222 198.042 257.538C198.777 257.849 199.391 258.302 199.885 258.897C200.379 259.492 200.727 260.211 200.93 261.053L198.469 261.481C198.368 261 198.172 260.591 197.88 260.255C197.595 259.913 197.244 259.654 196.826 259.476C196.414 259.299 195.974 259.204 195.505 259.191C195.049 259.185 194.625 259.255 194.232 259.4C193.846 259.54 193.533 259.742 193.292 260.008C193.058 260.274 192.94 260.585 192.94 260.939C192.94 261.275 193.042 261.551 193.244 261.766C193.447 261.975 193.697 262.143 193.995 262.269C194.299 262.39 194.606 262.491 194.916 262.573L197.367 263.257C197.703 263.346 198.08 263.466 198.498 263.618C198.916 263.77 199.318 263.983 199.704 264.255C200.091 264.527 200.407 264.885 200.654 265.328C200.908 265.772 201.034 266.335 201.034 267.019C201.034 267.729 200.886 268.353 200.588 268.891C200.297 269.423 199.901 269.866 199.4 270.221C198.9 270.576 198.327 270.842 197.681 271.019C197.041 271.196 196.37 271.285 195.667 271.285Z" fill="black"/>
</g>
<defs>
<linearGradient id="paint0_linear_387_159" x1="40" y1="80" x2="40" y2="0" gradientUnits="userSpaceOnUse">
<stop stop-color="#EFE0CF"/>
<stop offset="1" stop-color="#EFE0CF" stop-opacity="0"/>
</linearGradient>
<linearGradient id="paint1_linear_387_159" x1="-1" y1="263.5" x2="308" y2="263.5" gradientUnits="userSpaceOnUse">
<stop stop-color="#E6D0B7"/>
<stop offset="1" stop-color="#DEC19F"/>
</linearGradient>
<clipPath id="clip0_387_159">
<rect width="308" height="287" rx="12" fill="white"/>
</clipPath>
</defs>
</svg>
