<svg width="308" height="287" viewBox="0 0 308 287" fill="none" xmlns="http://www.w3.org/2000/svg">
<g clip-path="url(#clip0_387_173)">
<rect width="308" height="287" rx="12" fill="#FBF7F3"/>
<path d="M126.19 202V183.28H128.504V202H126.19ZM142.402 202V194.967C142.402 194.3 142.341 193.658 142.22 193.043C142.107 192.428 141.904 191.877 141.609 191.392C141.323 190.898 140.933 190.508 140.439 190.222C139.954 189.936 139.338 189.793 138.593 189.793C138.012 189.793 137.484 189.893 137.007 190.092C136.539 190.283 136.136 190.577 135.798 190.976C135.46 191.375 135.196 191.877 135.005 192.484C134.823 193.082 134.732 193.788 134.732 194.603L133.211 194.135C133.211 192.774 133.454 191.609 133.939 190.638C134.433 189.659 135.122 188.909 136.006 188.389C136.899 187.86 137.947 187.596 139.152 187.596C140.062 187.596 140.838 187.739 141.479 188.025C142.12 188.311 142.653 188.692 143.078 189.169C143.503 189.637 143.836 190.166 144.079 190.755C144.322 191.336 144.491 191.929 144.586 192.536C144.69 193.134 144.742 193.702 144.742 194.239V202H142.402ZM132.392 202V187.96H134.472V191.717H134.732V202H132.392ZM153.507 202.39C152.198 202.39 151.076 202.065 150.14 201.415C149.204 200.756 148.48 199.868 147.969 198.75C147.466 197.632 147.215 196.371 147.215 194.967C147.215 193.563 147.466 192.302 147.969 191.184C148.48 190.066 149.204 189.186 150.14 188.545C151.076 187.895 152.194 187.57 153.494 187.57C154.82 187.57 155.933 187.891 156.835 188.532C157.736 189.173 158.416 190.053 158.876 191.171C159.344 192.289 159.578 193.554 159.578 194.967C159.578 196.362 159.344 197.623 158.876 198.75C158.416 199.868 157.736 200.756 156.835 201.415C155.933 202.065 154.824 202.39 153.507 202.39ZM153.793 200.271C154.737 200.271 155.513 200.046 156.12 199.595C156.726 199.136 157.173 198.507 157.459 197.71C157.753 196.904 157.901 195.99 157.901 194.967C157.901 193.927 157.753 193.013 157.459 192.224C157.173 191.427 156.731 190.807 156.133 190.365C155.535 189.914 154.776 189.689 153.858 189.689C152.904 189.689 152.116 189.923 151.492 190.391C150.876 190.859 150.417 191.492 150.114 192.289C149.819 193.086 149.672 193.979 149.672 194.967C149.672 195.964 149.823 196.865 150.127 197.671C150.43 198.468 150.885 199.101 151.492 199.569C152.107 200.037 152.874 200.271 153.793 200.271ZM157.901 202V191.665H157.641V183.28H159.968V202H157.901ZM163.87 185.477V183.085H166.184V185.477H163.87ZM163.87 202V187.96H166.184V202H163.87ZM174.076 202.39C173.027 202.39 172.147 202.199 171.437 201.818C170.735 201.428 170.202 200.917 169.838 200.284C169.482 199.651 169.305 198.958 169.305 198.204C169.305 197.467 169.443 196.83 169.721 196.293C170.007 195.747 170.405 195.296 170.917 194.941C171.428 194.577 172.039 194.291 172.75 194.083C173.417 193.901 174.162 193.745 174.986 193.615C175.818 193.476 176.658 193.351 177.508 193.238C178.357 193.125 179.15 193.017 179.887 192.913L179.055 193.394C179.081 192.146 178.829 191.223 178.301 190.625C177.781 190.027 176.879 189.728 175.597 189.728C174.747 189.728 174.002 189.923 173.361 190.313C172.728 190.694 172.282 191.318 172.022 192.185L169.825 191.522C170.163 190.291 170.817 189.325 171.788 188.623C172.758 187.921 174.037 187.57 175.623 187.57C176.897 187.57 177.989 187.8 178.899 188.259C179.817 188.71 180.476 189.394 180.875 190.313C181.074 190.746 181.2 191.219 181.252 191.73C181.304 192.233 181.33 192.761 181.33 193.316V202H179.276V198.633L179.757 198.945C179.228 200.08 178.487 200.938 177.534 201.519C176.589 202.1 175.436 202.39 174.076 202.39ZM174.427 200.453C175.259 200.453 175.978 200.306 176.585 200.011C177.2 199.708 177.694 199.313 178.067 198.828C178.439 198.334 178.682 197.797 178.795 197.216C178.925 196.783 178.994 196.302 179.003 195.773C179.02 195.236 179.029 194.824 179.029 194.538L179.835 194.889C179.081 194.993 178.34 195.093 177.612 195.188C176.884 195.283 176.195 195.387 175.545 195.5C174.895 195.604 174.31 195.73 173.79 195.877C173.408 195.998 173.049 196.154 172.711 196.345C172.381 196.536 172.113 196.783 171.905 197.086C171.705 197.381 171.606 197.749 171.606 198.191C171.606 198.572 171.701 198.936 171.892 199.283C172.091 199.63 172.394 199.911 172.802 200.128C173.218 200.345 173.759 200.453 174.427 200.453Z" fill="#392A1A"/>
<circle cx="40" cy="40" r="40" transform="matrix(1 0 0 -1 114 110)" fill="url(#paint0_linear_387_173)"/>
<path d="M183.453 89.5198C184.098 89.5198 184.621 88.9966 184.621 88.3513V84.3047C184.64 84.2701 184.658 84.2349 184.674 84.1987L186.656 79.8028C186.894 79.2751 186.848 78.67 186.534 78.1838C186.22 77.6976 185.687 77.4073 185.108 77.4073H184.295V74.0307C184.295 72.5132 183.06 71.2784 181.543 71.2784H181.308V67.9019C181.308 66.3844 180.073 65.1496 178.556 65.1496H177.548V59.0948C177.548 57.3667 176.142 55.9609 174.414 55.9609H168.55V53.7558C168.55 52.5104 167.537 51.4973 166.291 51.4973H160.222L159.368 50.644C158.953 50.2287 158.401 50 157.814 50H150.186C149.599 50 149.047 50.2287 148.632 50.644L147.778 51.4973H141.709C140.463 51.4973 139.45 52.5104 139.45 53.7558V55.9609H133.586C131.858 55.9609 130.452 57.3667 130.452 59.0948V65.1496H129.444C127.927 65.1496 126.692 66.3842 126.692 67.9019V71.2785H126.458C124.94 71.2785 123.705 72.5132 123.705 74.0309V77.4075H122.892C122.313 77.4075 121.78 77.6977 121.466 78.184C121.152 78.6702 121.106 79.2753 121.344 79.8029L123.326 84.1986C123.418 84.4028 123.548 84.582 123.705 84.7309V102.024V106.959V110.425C123.705 111.071 124.228 111.594 124.874 111.594C125.519 111.594 126.042 111.071 126.042 110.425V108.127H139.45V127.663H126.042V115.405C126.042 114.759 125.519 114.236 124.874 114.236C124.228 114.236 123.705 114.759 123.705 115.405V127.663H122.801C122.155 127.663 121.632 128.186 121.632 128.832C121.632 129.477 122.155 130 122.801 130H185.482C186.128 130 186.65 129.477 186.65 128.832C186.65 128.186 186.128 127.663 185.482 127.663H184.621V106.959V102.024V93.3309C184.621 92.6856 184.098 92.1625 183.453 92.1625C182.808 92.1625 182.285 92.6856 182.285 93.3309V100.856H168.55V85.1986H182.285V88.3512C182.285 88.9966 182.808 89.5198 183.453 89.5198ZM125.287 82.8619L123.881 79.7444H184.119L182.746 82.7902C182.716 82.8128 182.688 82.8368 182.66 82.862L125.287 82.8619ZM126.042 100.856V85.1988H139.45V100.856H126.042ZM141.787 53.8342H148.262C148.572 53.8342 148.869 53.7111 149.089 53.4919L150.244 52.3369H157.756L158.911 53.4919C159.131 53.7111 159.428 53.8342 159.738 53.8342H166.213V55.9609H141.787V53.8342ZM132.789 59.0948C132.789 58.6553 133.146 58.2977 133.586 58.2977H174.414C174.854 58.2977 175.211 58.6553 175.211 59.0948V65.1496H164.756V62.6812C164.756 61.5089 163.802 60.5553 162.63 60.5553H145.37C144.198 60.5553 143.244 61.509 143.244 62.6812V65.1496H132.789L132.789 59.0948ZM145.581 65.1496V62.892H162.419V65.1496H145.581ZM129.029 67.9019C129.029 67.6729 129.215 67.4864 129.444 67.4864H178.556C178.785 67.4864 178.971 67.6728 178.971 67.9019V71.2785H129.029V67.9019ZM126.042 74.0307C126.042 73.8017 126.228 73.6152 126.458 73.6152H181.542C181.772 73.6152 181.958 73.8016 181.958 74.0307V77.4073H126.042V74.0307ZM126.042 103.193H144.124V105.79H126.042V103.193ZM141.787 108.127H144.124V127.663H141.787V108.127ZM163.876 108.127H166.213V127.663H163.876V108.127ZM168.55 127.663V108.127H182.285V127.663H168.55V127.663ZM182.285 105.79H163.876V103.192H182.285V105.79ZM166.213 100.856H163.876V99.5488C163.876 97.7131 163.367 95.9198 162.405 94.3625C162.065 93.8137 161.345 93.6439 160.797 93.983C160.248 94.3223 160.078 95.0424 160.417 95.5913C161.151 96.7789 161.539 98.1473 161.539 99.5486V102.024V127.663H146.461V102.024V99.5488C146.461 95.3917 149.843 92.0096 154 92.0096C155.073 92.0096 156.112 92.2324 157.089 92.6717C157.677 92.9366 158.369 92.6742 158.634 92.0856C158.898 91.4972 158.636 90.8055 158.048 90.5407C156.768 89.9647 155.406 89.6728 154 89.6728C148.554 89.6728 144.124 94.1031 144.124 99.5488V100.856H141.787V85.1988H166.213V100.856Z" fill="black"/>
<path d="M132.84 87.9678C130.216 87.9678 128.082 90.1019 128.082 92.7253C128.082 95.3487 130.216 97.483 132.84 97.483C135.463 97.483 137.597 95.3487 137.597 92.7253C137.597 90.1019 135.463 87.9678 132.84 87.9678ZM132.84 95.1461C131.505 95.1461 130.419 94.0601 130.419 92.7253C130.419 91.3905 131.505 90.3046 132.84 90.3046C134.174 90.3046 135.26 91.3905 135.26 92.7253C135.26 94.0601 134.175 95.1461 132.84 95.1461Z" fill="black"/>
<path d="M170.403 92.7254C170.403 95.3488 172.538 97.4831 175.161 97.4831C177.784 97.4831 179.919 95.3488 179.919 92.7254C179.919 90.1021 177.784 87.9679 175.161 87.9679C172.538 87.9679 170.403 90.1021 170.403 92.7254ZM177.582 92.7254C177.582 94.0603 176.496 95.1463 175.161 95.1463C173.826 95.1463 172.74 94.0603 172.74 92.7254C172.74 91.3906 173.826 90.3048 175.161 90.3048C176.496 90.3046 177.582 91.3906 177.582 92.7254Z" fill="black"/>
<rect x="-1" y="240" width="309" height="47" fill="url(#paint1_linear_387_173)"/>
<path d="M108.651 271.285C107.682 271.285 106.827 271.079 106.086 270.667C105.345 270.249 104.766 269.67 104.348 268.929C103.936 268.188 103.73 267.333 103.73 266.364V261.956C103.73 260.987 103.936 260.132 104.348 259.391C104.766 258.65 105.345 258.074 106.086 257.662C106.827 257.244 107.682 257.035 108.651 257.035C109.62 257.035 110.472 257.244 111.207 257.662C111.948 258.074 112.527 258.65 112.945 259.391C113.363 260.132 113.572 260.987 113.572 261.956V266.364C113.572 267.333 113.363 268.188 112.945 268.929C112.527 269.67 111.948 270.249 111.207 270.667C110.472 271.079 109.62 271.285 108.651 271.285ZM108.651 269.109C109.133 269.109 109.57 268.995 109.962 268.767C110.355 268.533 110.665 268.223 110.893 267.836C111.121 267.444 111.235 267.007 111.235 266.525V261.785C111.235 261.297 111.121 260.86 110.893 260.474C110.665 260.081 110.355 259.771 109.962 259.543C109.57 259.309 109.133 259.191 108.651 259.191C108.17 259.191 107.733 259.309 107.34 259.543C106.948 259.771 106.637 260.081 106.409 260.474C106.181 260.86 106.067 261.297 106.067 261.785V266.525C106.067 267.007 106.181 267.444 106.409 267.836C106.637 268.223 106.948 268.533 107.34 268.767C107.733 268.995 108.17 269.109 108.651 269.109ZM120.711 271.285C119.805 271.285 119.001 271.101 118.298 270.734C117.595 270.367 117.044 269.857 116.645 269.204C116.246 268.552 116.046 267.805 116.046 266.962C116.046 266.209 116.22 265.509 116.569 264.863C116.917 264.217 117.427 263.701 118.098 263.314L118.051 264.046C117.525 263.647 117.117 263.188 116.825 262.668C116.54 262.143 116.398 261.554 116.398 260.901C116.398 260.116 116.581 259.435 116.949 258.859C117.322 258.283 117.832 257.836 118.478 257.519C119.124 257.196 119.868 257.035 120.711 257.035C121.553 257.035 122.297 257.196 122.943 257.519C123.596 257.836 124.105 258.283 124.473 258.859C124.846 259.435 125.033 260.116 125.033 260.901C125.033 261.554 124.894 262.14 124.615 262.659C124.343 263.178 123.928 263.647 123.371 264.065L123.361 263.324C124.02 263.698 124.523 264.211 124.872 264.863C125.226 265.509 125.404 266.209 125.404 266.962C125.404 267.805 125.201 268.552 124.796 269.204C124.397 269.857 123.843 270.367 123.133 270.734C122.43 271.101 121.623 271.285 120.711 271.285ZM120.711 269.128C121.382 269.128 121.927 268.945 122.345 268.577C122.769 268.21 122.981 267.672 122.981 266.962C122.981 266.253 122.772 265.715 122.354 265.347C121.936 264.974 121.388 264.787 120.711 264.787C120.039 264.787 119.498 264.974 119.086 265.347C118.675 265.715 118.469 266.253 118.469 266.962C118.469 267.672 118.675 268.21 119.086 268.577C119.498 268.945 120.039 269.128 120.711 269.128ZM120.711 262.611C121.274 262.611 121.73 262.472 122.079 262.193C122.433 261.908 122.611 261.478 122.611 260.901C122.611 260.325 122.433 259.898 122.079 259.619C121.73 259.334 121.274 259.191 120.711 259.191C120.153 259.191 119.697 259.334 119.343 259.619C118.994 259.898 118.82 260.325 118.82 260.901C118.82 261.478 118.994 261.908 119.343 262.193C119.697 262.472 120.153 262.611 120.711 262.611ZM136.737 271.285C135.737 271.285 134.834 271.111 134.03 270.762C133.232 270.414 132.573 269.917 132.054 269.271C131.541 268.619 131.215 267.846 131.075 266.953L133.45 266.592C133.653 267.403 134.068 268.03 134.695 268.473C135.328 268.916 136.056 269.138 136.88 269.138C137.367 269.138 137.827 269.062 138.257 268.91C138.688 268.758 139.036 268.536 139.302 268.245C139.575 267.954 139.711 267.596 139.711 267.171C139.711 266.981 139.679 266.807 139.616 266.649C139.552 266.484 139.457 266.339 139.331 266.212C139.21 266.085 139.052 265.971 138.856 265.87C138.666 265.762 138.444 265.67 138.191 265.594L134.657 264.549C134.353 264.461 134.023 264.344 133.669 264.198C133.32 264.046 132.988 263.84 132.671 263.58C132.361 263.314 132.104 262.979 131.902 262.573C131.705 262.162 131.607 261.655 131.607 261.053C131.607 260.173 131.829 259.435 132.272 258.84C132.722 258.238 133.324 257.789 134.077 257.491C134.837 257.193 135.68 257.048 136.604 257.054C137.542 257.06 138.378 257.222 139.112 257.538C139.847 257.849 140.461 258.302 140.955 258.897C141.449 259.492 141.798 260.211 142 261.053L139.54 261.481C139.438 261 139.242 260.591 138.951 260.255C138.666 259.913 138.314 259.654 137.896 259.476C137.485 259.299 137.044 259.204 136.576 259.191C136.12 259.185 135.695 259.255 135.303 259.4C134.916 259.54 134.603 259.742 134.362 260.008C134.128 260.274 134.011 260.585 134.011 260.939C134.011 261.275 134.112 261.551 134.315 261.766C134.517 261.975 134.768 262.143 135.065 262.269C135.369 262.39 135.676 262.491 135.987 262.573L138.438 263.257C138.773 263.346 139.15 263.466 139.568 263.618C139.986 263.77 140.388 263.983 140.775 264.255C141.161 264.527 141.478 264.885 141.725 265.328C141.978 265.772 142.105 266.335 142.105 267.019C142.105 267.729 141.956 268.353 141.658 268.891C141.367 269.423 140.971 269.866 140.471 270.221C139.97 270.576 139.397 270.842 138.751 271.019C138.112 271.196 137.44 271.285 136.737 271.285ZM147.448 271V259.467H143.021V257.32H154.165V259.467H149.738V271H147.448ZM161.469 271.285C160.101 271.285 158.929 270.987 157.954 270.392C156.979 269.79 156.228 268.954 155.703 267.884C155.183 266.814 154.924 265.572 154.924 264.16C154.924 262.748 155.183 261.506 155.703 260.436C156.228 259.366 156.979 258.533 157.954 257.937C158.929 257.336 160.101 257.035 161.469 257.035C162.837 257.035 164.009 257.336 164.984 257.937C165.966 258.533 166.716 259.366 167.236 260.436C167.761 261.506 168.024 262.748 168.024 264.16C168.024 265.572 167.761 266.814 167.236 267.884C166.716 268.954 165.966 269.79 164.984 270.392C164.009 270.987 162.837 271.285 161.469 271.285ZM161.469 269.128C162.387 269.135 163.151 268.932 163.759 268.52C164.373 268.109 164.832 267.529 165.136 266.782C165.446 266.035 165.602 265.161 165.602 264.16C165.602 263.159 165.446 262.292 165.136 261.557C164.832 260.816 164.373 260.24 163.759 259.828C163.151 259.416 162.387 259.204 161.469 259.191C160.551 259.185 159.788 259.388 159.18 259.799C158.572 260.211 158.112 260.791 157.802 261.538C157.498 262.285 157.346 263.159 157.346 264.16C157.346 265.161 157.498 266.031 157.802 266.772C158.106 267.507 158.562 268.08 159.17 268.492C159.784 268.904 160.551 269.116 161.469 269.128ZM169.915 271V257.32H175.567C175.7 257.32 175.871 257.326 176.08 257.339C176.289 257.345 176.483 257.364 176.66 257.396C177.452 257.516 178.104 257.779 178.617 258.184C179.136 258.59 179.519 259.103 179.766 259.723C180.02 260.338 180.146 261.022 180.146 261.775C180.146 262.89 179.865 263.85 179.301 264.654C178.737 265.452 177.873 265.946 176.707 266.136L175.729 266.221H172.204V271H169.915ZM177.771 271L175.073 265.433L177.401 264.92L180.365 271H177.771ZM172.204 264.084H175.472C175.599 264.084 175.742 264.078 175.9 264.065C176.058 264.052 176.204 264.027 176.337 263.989C176.717 263.894 177.015 263.726 177.23 263.485C177.452 263.245 177.607 262.972 177.695 262.668C177.79 262.364 177.838 262.067 177.838 261.775C177.838 261.484 177.79 261.186 177.695 260.882C177.607 260.572 177.452 260.297 177.23 260.056C177.015 259.815 176.717 259.647 176.337 259.552C176.204 259.514 176.058 259.492 175.9 259.486C175.742 259.473 175.599 259.467 175.472 259.467H172.204V264.084ZM182.458 271V257.32H191.293V259.467H184.747V262.839H190.153V264.986H184.747V268.853H191.293V271H182.458ZM198.506 271.285C197.505 271.285 196.603 271.111 195.798 270.762C195 270.414 194.342 269.917 193.822 269.271C193.309 268.619 192.983 267.846 192.844 266.953L195.219 266.592C195.421 267.403 195.836 268.03 196.463 268.473C197.097 268.916 197.825 269.138 198.648 269.138C199.136 269.138 199.595 269.062 200.026 268.91C200.456 268.758 200.805 268.536 201.071 268.245C201.343 267.954 201.479 267.596 201.479 267.171C201.479 266.981 201.448 266.807 201.384 266.649C201.321 266.484 201.226 266.339 201.099 266.212C200.979 266.085 200.821 265.971 200.624 265.87C200.434 265.762 200.213 265.67 199.959 265.594L196.425 264.549C196.121 264.461 195.792 264.344 195.437 264.198C195.089 264.046 194.756 263.84 194.44 263.58C194.129 263.314 193.873 262.979 193.67 262.573C193.474 262.162 193.376 261.655 193.376 261.053C193.376 260.173 193.597 259.435 194.041 258.84C194.49 258.238 195.092 257.789 195.846 257.491C196.606 257.193 197.448 257.048 198.373 257.054C199.31 257.06 200.146 257.222 200.881 257.538C201.615 257.849 202.23 258.302 202.724 258.897C203.218 259.492 203.566 260.211 203.769 261.053L201.308 261.481C201.207 261 201.011 260.591 200.719 260.255C200.434 259.913 200.083 259.654 199.665 259.476C199.253 259.299 198.813 259.204 198.344 259.191C197.888 259.185 197.464 259.255 197.071 259.4C196.685 259.54 196.371 259.742 196.131 260.008C195.896 260.274 195.779 260.585 195.779 260.939C195.779 261.275 195.881 261.551 196.083 261.766C196.286 261.975 196.536 262.143 196.834 262.269C197.138 262.39 197.445 262.491 197.755 262.573L200.206 263.257C200.542 263.346 200.919 263.466 201.337 263.618C201.755 263.77 202.157 263.983 202.543 264.255C202.93 264.527 203.246 264.885 203.493 265.328C203.747 265.772 203.873 266.335 203.873 267.019C203.873 267.729 203.724 268.353 203.427 268.891C203.135 269.423 202.74 269.866 202.239 270.221C201.739 270.576 201.166 270.842 200.52 271.019C199.88 271.196 199.209 271.285 198.506 271.285Z" fill="black"/>
</g>
<defs>
<linearGradient id="paint0_linear_387_173" x1="40" y1="80" x2="40" y2="0" gradientUnits="userSpaceOnUse">
<stop stop-color="#EFE0CF"/>
<stop offset="1" stop-color="#EFE0CF" stop-opacity="0"/>
</linearGradient>
<linearGradient id="paint1_linear_387_173" x1="-1" y1="263.5" x2="308" y2="263.5" gradientUnits="userSpaceOnUse">
<stop stop-color="#E6D0B7"/>
<stop offset="1" stop-color="#DEC19F"/>
</linearGradient>
<clipPath id="clip0_387_173">
<rect width="308" height="287" rx="12" fill="white"/>
</clipPath>
</defs>
</svg>
